<svg width="24" height="24" viewBox="0 0 24 24" fill="none" xmlns="http://www.w3.org/2000/svg">
<g clip-path="url(#clip0)">
<path d="M20.212 9.71097C20.212 16.3935 11.6202 22.1213 11.6202 22.1213C11.6202 22.1213 3.02844 16.3935 3.02844 9.71097C3.02844 7.43229 3.93364 5.24694 5.54491 3.63567C7.15618 2.0244 9.34153 1.1192 11.6202 1.1192C13.8989 1.1192 16.0842 2.0244 17.6955 3.63567C19.3068 5.24694 20.212 7.43229 20.212 9.71097Z" stroke="#464646" stroke-width="2" stroke-linecap="round" stroke-linejoin="round"/>
<path d="M11.6203 12.5749C13.202 12.5749 14.4842 11.2927 14.4842 9.71097C14.4842 8.12927 13.202 6.84705 11.6203 6.84705C10.0386 6.84705 8.75635 8.12927 8.75635 9.71097C8.75635 11.2927 10.0386 12.5749 11.6203 12.5749Z" stroke="#464646" stroke-width="2" stroke-linecap="round" stroke-linejoin="round"/>
</g>
<defs>
<clipPath id="clip0">
<rect width="22.9114" height="22.9114" fill="white" transform="translate(0.164551 0.164551)"/>
</clipPath>
</defs>
</svg>
