<svg width="5" height="71" viewBox="0 0 5 71" fill="none" xmlns="http://www.w3.org/2000/svg">
<path d="M1.88118 67.7353C1.69176 67.4512 1.30785 67.3744 1.02371 67.5639C0.739568 67.7533 0.662787 68.1372 0.852215 68.4213L1.88118 67.7353ZM2.60337 69.9333L2.08888 70.2763C2.20356 70.4483 2.39662 70.5517 2.60337 70.5517C2.81011 70.5517 3.00317 70.4483 3.11785 70.2763L2.60337 69.9333ZM4.35452 68.4213C4.54394 68.1372 4.46716 67.7533 4.18302 67.5639C3.89888 67.3744 3.51498 67.4512 3.32555 67.7353L4.35452 68.4213ZM0.852215 68.4213L2.08888 70.2763L3.11785 69.5903L1.88118 67.7353L0.852215 68.4213ZM3.11785 70.2763L4.35452 68.4213L3.32555 67.7353L2.08888 69.5903L3.11785 70.2763Z" fill="white"/>
<circle cx="2.60337" cy="1.91666" r="1.23667" fill="white"/>
<circle cx="2.60337" cy="8.10001" r="1.23667" fill="white" fill-opacity="0.55"/>
<circle cx="2.60337" cy="14.2834" r="1.23667" fill="white" fill-opacity="0.55"/>
<circle cx="2.60337" cy="20.4666" r="1.23667" fill="white" fill-opacity="0.55"/>
<circle cx="2.60337" cy="26.65" r="1.23667" fill="white" fill-opacity="0.55"/>
<circle cx="2.60337" cy="32.8333" r="1.23667" fill="white" fill-opacity="0.55"/>
<circle cx="2.60337" cy="39.0167" r="1.23667" fill="white" fill-opacity="0.55"/>
<circle cx="2.60337" cy="45.2" r="1.23667" fill="white" fill-opacity="0.55"/>
<circle cx="2.60337" cy="51.3833" r="1.23667" fill="white" fill-opacity="0.55"/>
<circle cx="2.60337" cy="57.5667" r="1.23667" fill="white" fill-opacity="0.55"/>
<circle cx="2.60337" cy="63.75" r="1.23667" fill="white" fill-opacity="0.55"/>
</svg>
