<svg width="17" height="15" viewBox="0 0 17 15" fill="none" xmlns="http://www.w3.org/2000/svg">
<path d="M16.0233 5.50228H16.147V5.37862V3.78787C16.147 3.23968 15.9358 2.7132 15.5588 2.32444C15.1817 1.93556 14.6693 1.71636 14.1342 1.71636H3.07246C2.53739 1.71636 2.02504 1.93556 1.64788 2.32444C1.27085 2.7132 1.05968 3.23968 1.05968 3.78787V12.2588C1.05968 12.807 1.27085 13.3335 1.64788 13.7223C2.02504 14.1112 2.53739 14.3304 3.07246 14.3304H14.1321C14.397 14.3304 14.6592 14.2766 14.9036 14.1721C15.1481 14.0677 15.37 13.9148 15.5567 13.7223C15.7434 13.5298 15.8914 13.3014 15.9922 13.0504C16.0931 12.7993 16.1449 12.5304 16.1449 12.2588V10.6692V10.5455H16.0213H15.6014H15.4778V10.6692V12.2588C15.4778 12.629 15.3351 12.9834 15.0823 13.244C14.8297 13.5045 14.4878 13.6502 14.1321 13.6502H3.07246C2.71682 13.6502 2.37494 13.5045 2.12228 13.244C1.86948 12.9834 1.72682 12.629 1.72682 12.2588V3.78787C1.72682 3.41767 1.86948 3.06336 2.12228 2.80271C2.37494 2.54218 2.71682 2.39655 3.07246 2.39655H14.1321C14.4878 2.39655 14.8297 2.54218 15.0823 2.80271C15.3351 3.06336 15.4778 3.41767 15.4778 3.78787V5.37862V5.50228H15.6014H16.0233Z" fill="white" stroke="white" stroke-width="0.247333"/>
<mask id="path-2-inside-1" fill="white">
<path d="M9.17413 1.06072C9.17413 0.808113 8.91859 0.603333 8.60336 0.603333C8.28813 0.603333 8.03259 0.808113 8.03259 1.06072V2.61928C8.03259 2.87189 8.28813 3.07667 8.60336 3.07667C8.91859 3.07667 9.17413 2.87189 9.17413 2.61928V1.06072Z"/>
</mask>
<path d="M9.17413 1.06072C9.17413 0.808113 8.91859 0.603333 8.60336 0.603333C8.28813 0.603333 8.03259 0.808113 8.03259 1.06072V2.61928C8.03259 2.87189 8.28813 3.07667 8.60336 3.07667C8.91859 3.07667 9.17413 2.87189 9.17413 2.61928V1.06072Z" fill="white"/>
<path d="M8.60336 3.07667C8.23767 3.07667 7.82531 2.95989 7.46028 2.66737C7.09065 2.37116 6.7008 1.81865 6.7008 1.06072H11.6475C11.6475 -1.04097 9.74528 -1.87 8.60336 -1.87V3.07667ZM6.7008 1.06072V2.61928H11.6475V1.06072H6.7008ZM6.7008 2.61928C6.7008 1.86135 7.09065 1.30883 7.46028 1.01263C7.82531 0.720108 8.23767 0.603333 8.60336 0.603333V5.55C9.74528 5.55 11.6475 4.72096 11.6475 2.61928H6.7008ZM8.60336 0.603333C8.96906 0.603333 9.38141 0.720108 9.74644 1.01263C10.1161 1.30883 10.5059 1.86135 10.5059 2.61928H5.55926C5.55926 4.72096 7.46145 5.55 8.60336 5.55V0.603333ZM10.5059 2.61928V1.06072H5.55926V2.61928H10.5059ZM10.5059 1.06072C10.5059 1.81865 10.1161 2.37116 9.74644 2.66737C9.38141 2.95989 8.96906 3.07667 8.60336 3.07667V-1.87C7.46145 -1.87 5.55926 -1.04097 5.55926 1.06072H10.5059Z" fill="white" mask="url(#path-2-inside-1)"/>
<mask id="path-4-inside-2" fill="white">
<path d="M4.60791 1.06072C4.60791 0.808113 4.35237 0.603333 4.03714 0.603333C3.72191 0.603333 3.46637 0.808113 3.46637 1.06072V2.61928C3.46637 2.87189 3.72191 3.07667 4.03714 3.07667C4.35237 3.07667 4.60791 2.87189 4.60791 2.61928V1.06072Z"/>
</mask>
<path d="M4.60791 1.06072C4.60791 0.808113 4.35237 0.603333 4.03714 0.603333C3.72191 0.603333 3.46637 0.808113 3.46637 1.06072V2.61928C3.46637 2.87189 3.72191 3.07667 4.03714 3.07667C4.35237 3.07667 4.60791 2.87189 4.60791 2.61928V1.06072Z" fill="white"/>
<path d="M4.03714 3.07667C3.67145 3.07667 3.25909 2.95989 2.89406 2.66737C2.52443 2.37116 2.13457 1.81865 2.13457 1.06072H7.08124C7.08124 -1.04097 5.17905 -1.87 4.03714 -1.87V3.07667ZM2.13457 1.06072V2.61928H7.08124V1.06072H2.13457ZM2.13457 2.61928C2.13457 1.86135 2.52443 1.30883 2.89406 1.01263C3.25909 0.720108 3.67144 0.603333 4.03714 0.603333V5.55C5.17905 5.55 7.08124 4.72096 7.08124 2.61928H2.13457ZM4.03714 0.603333C4.40283 0.603333 4.81519 0.720108 5.18022 1.01263C5.54985 1.30883 5.9397 1.86135 5.9397 2.61928H0.993036C0.993036 4.72096 2.89522 5.55 4.03714 5.55V0.603333ZM5.9397 2.61928V1.06072H0.993036V2.61928H5.9397ZM5.9397 1.06072C5.9397 1.81865 5.54985 2.37116 5.18022 2.66737C4.81519 2.95989 4.40283 3.07667 4.03714 3.07667V-1.87C2.89522 -1.87 0.993036 -1.04097 0.993036 1.06072H5.9397Z" fill="white" mask="url(#path-4-inside-2)"/>
<mask id="path-6-inside-3" fill="white">
<path d="M13.7402 1.06072C13.7402 0.808113 13.4846 0.603333 13.1694 0.603333C12.8542 0.603333 12.5986 0.808113 12.5986 1.06072V2.61928C12.5986 2.87189 12.8542 3.07667 13.1694 3.07667C13.4846 3.07667 13.7402 2.87189 13.7402 2.61928V1.06072Z"/>
</mask>
<path d="M13.7402 1.06072C13.7402 0.808113 13.4846 0.603333 13.1694 0.603333C12.8542 0.603333 12.5986 0.808113 12.5986 1.06072V2.61928C12.5986 2.87189 12.8542 3.07667 13.1694 3.07667C13.4846 3.07667 13.7402 2.87189 13.7402 2.61928V1.06072Z" fill="white"/>
<path d="M13.1694 3.07667C12.8037 3.07667 12.3914 2.95989 12.0263 2.66737C11.6567 2.37116 11.2668 1.81865 11.2668 1.06072H16.2135C16.2135 -1.04097 14.3113 -1.87 13.1694 -1.87V3.07667ZM11.2668 1.06072V2.61928H16.2135V1.06072H11.2668ZM11.2668 2.61928C11.2668 1.86135 11.6567 1.30883 12.0263 1.01263C12.3914 0.720108 12.8037 0.603333 13.1694 0.603333V5.55C14.3113 5.55 16.2135 4.72097 16.2135 2.61928H11.2668ZM13.1694 0.603333C13.5351 0.603333 13.9474 0.720108 14.3125 1.01263C14.6821 1.30883 15.072 1.86135 15.072 2.61928H10.1253C10.1253 4.72097 12.0275 5.55 13.1694 5.55V0.603333ZM15.072 2.61928V1.06072H10.1253V2.61928H15.072ZM15.072 1.06072C15.072 1.81865 14.6821 2.37116 14.3125 2.66737C13.9475 2.95989 13.5351 3.07667 13.1694 3.07667V-1.87C12.0275 -1.87 10.1253 -1.04097 10.1253 1.06072H15.072Z" fill="white" mask="url(#path-6-inside-3)"/>
<path d="M14.7851 7.95185L14.721 8.03234L14.7885 8.11003L14.9424 8.28714L15.7433 9.29745L15.7436 9.29773C15.7836 9.3479 15.8446 9.38368 15.9161 9.38368C15.9875 9.38368 16.0486 9.3479 16.0886 9.29773L16.0888 9.29743C16.1281 9.24783 16.147 9.18556 16.147 9.12494C16.147 9.06431 16.1281 9.00205 16.0888 8.95245L16.0886 8.95219L15.3626 8.041C15.3626 8.041 15.3626 8.041 15.3626 8.041C15.3618 8.03997 15.3581 8.03369 15.3581 8.02284C15.3581 8.01198 15.3618 8.00571 15.3626 8.00469L16.0886 7.09349L16.0887 7.09345C16.1281 7.04396 16.147 6.98178 16.147 6.92125C16.147 6.86073 16.1281 6.79854 16.0887 6.74906L16.0886 6.74897C16.0486 6.6988 15.9875 6.66302 15.9161 6.66302C15.8446 6.66302 15.7836 6.6988 15.7436 6.74897L15.7435 6.74901L14.9368 7.7615L14.9368 7.7615L14.7851 7.95185Z" fill="white" stroke="white" stroke-width="0.247333"/>
</svg>
