<svg width="19" height="11" viewBox="0 0 19 11" fill="none" xmlns="http://www.w3.org/2000/svg">
<path d="M15.9598 5.5063H17.6702V3.96712C17.6702 3.64749 17.4096 3.38684 17.09 3.38684H7.45538C7.48584 3.44963 7.51438 3.51241 7.54292 3.5771C7.73698 4.03752 7.8359 4.52648 7.8359 5.03066C7.8359 5.19045 7.82638 5.35029 7.80545 5.5063H15.9598Z" fill="white"/>
<path d="M4.10298 1.96371C4.03829 1.96371 3.9755 1.96562 3.91272 1.96942V5.50439H6.02647H7.13186C7.15661 5.34838 7.16801 5.19046 7.16801 5.02875C7.16801 4.42373 6.99297 3.86059 6.69046 3.38683C6.14823 2.53068 5.19124 1.96371 4.10298 1.96371Z" fill="white"/>
<path d="M1.51742 10.8639H2.67609C2.99191 10.8639 3.24686 10.609 3.24686 10.2932V8.4724H15.9598V10.2932C15.9598 10.609 16.2147 10.8639 16.5306 10.8639H17.6892C18.005 10.8639 18.26 10.609 18.26 10.2932V6.74297C18.26 6.42712 18.005 6.1722 17.6892 6.1722H15.9598H3.24686V2.08549V0.913512C3.24686 0.597686 2.99191 0.342743 2.67609 0.342743H1.51742C1.2016 0.342743 0.946655 0.597686 0.946655 0.913512V3.03868V3.77116V6.28826V7.02074V10.2932C0.946655 10.6071 1.2016 10.8639 1.51742 10.8639Z" fill="white"/>
</svg>
