<svg width="367" height="367" viewBox="0 0 367 367" fill="none" xmlns="http://www.w3.org/2000/svg">
<path d="M367 280.682H0V280.865H367V280.682Z" fill="#E0E0E0"/>
<path d="M126.49 285.115H118.798V285.298H126.49V285.115Z" fill="#E0E0E0"/>
<path d="M342.183 289.93H314.336V290.113H342.183V289.93Z" fill="#E0E0E0"/>
<path d="M255.432 285.203H232.928V285.387H255.432V285.203Z" fill="#E0E0E0"/>
<path d="M177.973 289.387H138.807V289.57H177.973V289.387Z" fill="#E0E0E0"/>
<path d="M102.518 288.227H89.0562V288.411H102.518V288.227Z" fill="#E0E0E0"/>
<path d="M310.79 289.93H299.589V290.113H310.79V289.93Z" fill="#E0E0E0"/>
<path d="M84.777 288.139H47.6586V288.323H84.777V288.139Z" fill="#E0E0E0"/>
<path d="M173.958 247.945H32.2299C31.1197 247.943 30.0555 247.501 29.2711 246.715C28.4867 245.929 28.0461 244.864 28.0461 243.754V44.5244C28.0558 43.4205 28.5006 42.365 29.284 41.5871C30.0674 40.8093 31.126 40.3719 32.2299 40.37H173.958C175.07 40.37 176.136 40.8116 176.922 41.5976C177.708 42.3835 178.149 43.4496 178.149 44.5611V243.754C178.149 244.866 177.708 245.932 176.922 246.718C176.136 247.504 175.07 247.945 173.958 247.945ZM32.2299 40.5168C31.1683 40.5187 30.1508 40.9418 29.4009 41.6932C28.6509 42.4446 28.2296 43.4628 28.2296 44.5244V243.754C28.2296 244.816 28.6509 245.834 29.4009 246.585C30.1508 247.337 31.1683 247.76 32.2299 247.762H173.958C175.02 247.76 176.039 247.337 176.79 246.586C177.541 245.835 177.964 244.816 177.966 243.754V44.5244C177.964 43.4621 177.541 42.4439 176.79 41.6927C176.039 40.9416 175.02 40.5187 173.958 40.5168H32.2299Z" fill="#E0E0E0"/>
<path d="M332.73 247.945H190.994C189.883 247.943 188.818 247.501 188.033 246.715C187.247 245.93 186.805 244.865 186.803 243.754V44.5244C186.815 43.4198 187.261 42.3643 188.046 41.5867C188.83 40.809 189.889 40.3719 190.994 40.37H332.73C333.832 40.3738 334.889 40.812 335.671 41.5897C336.453 42.3674 336.896 43.4218 336.906 44.5244V243.754C336.906 244.863 336.466 245.927 335.684 246.712C334.901 247.498 333.839 247.941 332.73 247.945ZM190.994 40.5168C189.932 40.5187 188.914 40.9416 188.162 41.6927C187.411 42.4439 186.988 43.4621 186.986 44.5244V243.754C186.988 244.816 187.411 245.835 188.162 246.586C188.914 247.337 189.932 247.76 190.994 247.762H332.73C333.792 247.76 334.81 247.337 335.561 246.586C336.312 245.835 336.735 244.816 336.737 243.754V44.5244C336.735 43.4621 336.312 42.4439 335.561 41.6927C334.81 40.9416 333.792 40.5187 332.73 40.5168H190.994Z" fill="#E0E0E0"/>
<path d="M142.154 86.6927H54.3967V280.77H142.154V86.6927Z" fill="#E6E6E6"/>
<path d="M142.154 86.6927H58.5585V280.77H142.154V86.6927Z" fill="#F5F5F5"/>
<path d="M137.75 276.373V91.1041H62.9625L62.9625 276.373H137.75Z" fill="#F0F0F0"/>
<path d="M137.75 276.366V91.0967H136.605V276.366H137.75Z" fill="#E6E6E6"/>
<path d="M127.76 179.463C129.831 179.463 131.511 177.784 131.511 175.712C131.511 173.641 129.831 171.962 127.76 171.962C125.689 171.962 124.009 173.641 124.009 175.712C124.009 177.784 125.689 179.463 127.76 179.463Z" fill="#E6E6E6"/>
<path d="M129.228 178.685C131.3 178.685 132.979 177.006 132.979 174.934C132.979 172.863 131.3 171.183 129.228 171.183C127.157 171.183 125.477 172.863 125.477 174.934C125.477 177.006 127.157 178.685 129.228 178.685Z" fill="#FAFAFA"/>
<path d="M326.814 66.0159H267.411V177.599H326.814V66.0159Z" fill="#E0E0E0"/>
<path d="M329.353 66.0159H269.951V177.599H329.353V66.0159Z" fill="#F5F5F5"/>
<path d="M324.795 172.688V70.9265H274.501V172.688H324.795Z" fill="#FAFAFA"/>
<path d="M324.802 172.688V70.9264H322.887V172.688H324.802Z" fill="#E0E0E0"/>
<path d="M327.474 143.218H271.837V149.809H327.474V143.218Z" fill="#F5F5F5"/>
<path d="M253.568 66.0159H194.165V177.599H253.568V66.0159Z" fill="#E0E0E0"/>
<path d="M256.1 66.0159H196.697V177.599H256.1V66.0159Z" fill="#F5F5F5"/>
<path d="M251.549 172.681V70.9191H201.255V172.681H251.549Z" fill="#FAFAFA"/>
<path d="M251.549 172.688V70.9264H249.633V172.688H251.549Z" fill="#E0E0E0"/>
<path d="M254.221 143.218H198.584V149.809H254.221V143.218Z" fill="#F5F5F5"/>
<path d="M117.073 78.1563L116.405 78.8242H83.632V66.0159L117.073 78.1563Z" fill="#E0E0E0"/>
<path d="M84.9018 78.1563H117.073L115.811 66.0159H83.632L84.9018 78.1563Z" fill="#F5F5F5"/>
<path d="M150.683 182.649H164.555V168.776H150.683V182.649Z" fill="#EBEBEB"/>
<path d="M150.69 168.776H150.22V182.649H150.69V168.776Z" fill="#E0E0E0"/>
<path d="M163.264 180.006L162.764 180.505H152.444V170.993L163.264 180.006Z" fill="#E0E0E0"/>
<path d="M153.384 180.006H163.264L162.331 170.993H152.444L153.384 180.006Z" fill="#FAFAFA"/>
<path d="M170.501 200.83L177.474 194.532L184.439 200.83V280.865H170.501V200.83Z" fill="#F0F0F0"/>
<path d="M194.657 200.83L201.622 194.532L208.595 200.83V280.865H194.657V200.83Z" fill="#F0F0F0"/>
<path d="M218.805 200.83L225.778 194.532L232.744 200.83V280.865H218.805V200.83Z" fill="#F0F0F0"/>
<path d="M242.961 200.83L249.927 194.532L256.893 200.83V280.865H242.961V200.83Z" fill="#F0F0F0"/>
<path d="M267.11 200.83L274.083 194.532L281.049 200.83V280.865H267.11V200.83Z" fill="#F0F0F0"/>
<path d="M291.266 200.83L298.232 194.532L305.197 200.83V280.865H291.266V200.83Z" fill="#F0F0F0"/>
<path d="M315.414 200.83L322.387 194.532L329.353 200.83V280.865H315.414V200.83Z" fill="#F0F0F0"/>
<path d="M177.467 216.024L322.38 216.024V212.471L177.467 212.471V216.024Z" fill="#F0F0F0"/>
<path d="M177.467 258.067H322.38V254.514L177.467 254.514V258.067Z" fill="#F0F0F0"/>
<path d="M183.5 313.829C262.099 313.829 325.815 310.109 325.815 305.52C325.815 300.931 262.099 297.211 183.5 297.211C104.901 297.211 41.1848 300.931 41.1848 305.52C41.1848 310.109 104.901 313.829 183.5 313.829Z" fill="#F5F5F5"/>
<path d="M258.324 139.306L258.713 139.636L259.175 140.003C259.484 140.253 259.814 140.502 260.137 140.737C260.798 141.214 261.473 141.684 262.177 142.11C263.574 142.993 265.028 143.783 266.53 144.473C268.04 145.151 269.586 145.744 271.162 146.249C271.962 146.462 272.747 146.727 273.562 146.888L274.78 147.152H274.927C274.927 147.152 274.927 147.152 274.89 147.152C274.854 147.152 274.817 147.233 274.89 147.152C275.04 146.992 275.16 146.805 275.243 146.602C275.526 145.955 275.726 145.274 275.837 144.576C276.098 142.937 276.233 141.281 276.241 139.621C276.241 137.911 276.241 136.172 276.138 134.432C276.035 132.693 275.925 130.924 275.778 129.199L278.347 128.736C279.236 132.268 279.835 135.867 280.138 139.497C280.311 141.387 280.311 143.288 280.138 145.178C280.037 146.247 279.805 147.299 279.448 148.312C279.22 148.943 278.895 149.534 278.487 150.066C277.955 150.769 277.231 151.302 276.402 151.6C275.768 151.826 275.091 151.911 274.421 151.85L274.12 151.813H273.943L272.542 151.586C271.602 151.446 270.685 151.197 269.752 150.998C267.913 150.53 266.113 149.924 264.365 149.185C262.615 148.442 260.922 147.571 259.3 146.58C258.485 146.088 257.7 145.545 256.922 144.98C256.533 144.693 256.151 144.4 255.77 144.092C255.579 143.937 255.395 143.776 255.204 143.607C255.014 143.438 254.845 143.291 254.595 143.057L258.324 139.306Z" fill="#9F5B53"/>
<path d="M250.962 136.223C258.397 135.21 264.401 141.222 264.401 141.222L258.852 150.661C258.852 150.661 250.294 147.057 249.002 143.864C247.666 140.561 247.145 136.737 250.962 136.223Z" fill="#1B76A9"/>
<path opacity="0.3" d="M250.962 136.223C258.397 135.21 264.401 141.222 264.401 141.222L258.852 150.661C258.852 150.661 250.294 147.057 249.002 143.864C247.666 140.561 247.145 136.737 250.962 136.223Z" fill="black"/>
<path d="M276.476 130.586L272.402 126.828L278.443 124.472C278.443 124.472 280.359 127.701 278.81 130.931L276.476 130.586Z" fill="#9F5B53"/>
<path d="M271.58 121.44L276.388 120.523L278.443 124.472L272.402 126.828L271.58 121.44Z" fill="#9F5B53"/>
<path d="M224.604 299.89L230.593 300.478L236.832 286.216L230.843 285.629L224.604 299.89Z" fill="#9F5B53"/>
<path d="M186.018 278.81L190.517 283.038L200.228 272.358L195.728 268.138L186.018 278.81Z" fill="#9F5B53"/>
<path d="M192.594 281.012L189.21 274.92C189.154 274.814 189.061 274.733 188.949 274.691C188.837 274.649 188.713 274.649 188.601 274.692L183.397 276.674C183.268 276.728 183.151 276.808 183.055 276.91C182.959 277.012 182.885 277.133 182.84 277.266C182.794 277.398 182.777 277.539 182.789 277.679C182.802 277.818 182.844 277.954 182.913 278.076C184.131 280.183 184.821 281.137 186.304 283.816C187.221 285.46 189.005 289.24 190.267 291.515C191.53 293.791 193.849 292.668 193.526 291.604C192.058 286.847 192.352 284.197 192.792 282.098C192.855 281.724 192.785 281.34 192.594 281.012Z" fill="#263238"/>
<path d="M231.393 298.628H224.053C223.921 298.63 223.793 298.674 223.689 298.755C223.584 298.836 223.509 298.948 223.474 299.076L221.874 304.896C221.834 305.034 221.828 305.179 221.855 305.32C221.882 305.46 221.942 305.592 222.03 305.705C222.118 305.818 222.232 305.909 222.361 305.97C222.491 306.031 222.633 306.06 222.776 306.056C225.367 306.056 226.593 306.056 229.83 306.056H239.717C242.411 306.056 242.969 303.34 241.86 303.12C236.869 302.019 233.992 300.492 232.458 299.046C232.171 298.773 231.789 298.623 231.393 298.628Z" fill="#263238"/>
<path d="M236.825 286.223L233.617 293.571H227.364L230.836 285.636L236.825 286.223Z" fill="#8A4743"/>
<path d="M195.721 268.138L200.228 272.365L195.215 277.863L190.715 273.635L195.721 268.138Z" fill="#8A4743"/>
<path d="M257.326 136.913C257.326 136.913 260.012 138.102 250.984 173.848L225.888 171.646C227.195 161.465 227.753 155.168 224.677 133.786C228.255 133.368 231.859 133.209 235.46 133.309C239.276 133.374 243.083 133.713 246.852 134.322C250.384 135.01 253.88 135.875 257.326 136.913Z" fill="#1B76A9"/>
<path opacity="0.3" d="M257.326 136.913C257.326 136.913 260.012 138.102 250.984 173.848L225.888 171.646C227.195 161.465 227.753 155.168 224.677 133.786C228.255 133.368 231.859 133.209 235.46 133.309C239.276 133.374 243.083 133.713 246.852 134.322C250.384 135.01 253.88 135.875 257.326 136.913Z" fill="black"/>
<path d="M235.46 133.338C235.46 133.338 234.036 133.184 232.355 133.184C231.342 134.748 234.418 140.686 239.849 145.149C241.066 143.096 242.611 141.256 244.422 139.702L235.46 133.338Z" fill="#FAFAFA"/>
<path d="M246.852 134.322C247.578 134.368 248.298 134.483 249.002 134.667C250.015 136.23 251.975 141.757 249.002 145.149C247.785 143.096 246.241 141.256 244.429 139.702L246.852 134.322Z" fill="#FAFAFA"/>
<path d="M245.237 143.681C245.237 144.128 245.112 144.495 244.899 144.51C244.686 144.525 244.503 144.165 244.473 143.725C244.444 143.284 244.598 142.902 244.811 142.895C245.024 142.888 245.215 143.233 245.237 143.681Z" fill="#FAFAFA"/>
<path d="M245.156 147.079C245.156 147.519 244.965 147.879 244.752 147.879C244.539 147.879 244.385 147.505 244.393 147.057C244.4 146.609 244.583 146.257 244.796 146.257C245.009 146.257 245.193 146.631 245.156 147.079Z" fill="#FAFAFA"/>
<path d="M237.699 120.604C238.102 124.332 238.234 131.114 235.497 133.338C238.183 135.838 241.184 137.977 244.422 139.702C248.782 136.693 246.851 134.322 246.851 134.322C242.851 132.993 243.218 129.969 244.172 127.18L237.699 120.604Z" fill="#9F5B53"/>
<path d="M240.341 123.312L244.172 127.202C243.941 127.849 243.764 128.515 243.644 129.191C242.103 128.832 239.871 127.232 239.849 125.58C239.875 124.801 240.041 124.032 240.341 123.312Z" fill="#8A4743"/>
<path d="M245.024 109.557C245.024 109.557 249.09 113.55 249.986 115.495C252.452 116.412 251.784 109.917 249.912 106.158C246.624 109.087 245.024 109.557 245.024 109.557Z" fill="#263238"/>
<path d="M234.418 114.776C235.974 120.736 236.502 123.29 240.157 125.786C245.648 129.536 252.635 126.321 252.878 120.024C253.113 114.35 250.529 105.564 244.158 104.331C242.754 104.049 241.302 104.132 239.939 104.57C238.577 105.008 237.349 105.788 236.373 106.835C235.396 107.882 234.704 109.161 234.362 110.551C234.02 111.941 234.039 113.395 234.418 114.776Z" fill="#9F5B53"/>
<path d="M247.93 107.164C250.661 107.568 253.384 105.013 248.965 102.276C250.382 102.129 251.901 97.1376 246.763 97.4091C246.514 95.0383 241.427 92.9244 238.689 96.6751C235.526 94.5906 231.034 96.7192 232.039 99.9561C228.406 100.184 226.512 105.146 229.514 105.953C225.903 108.155 225.272 111.715 228.78 112.361C229.265 116.478 237.332 114.636 236.708 110.805C238.176 111.59 242.785 109.902 241.846 107.869C243.336 109.784 247.93 108.911 247.93 107.164Z" fill="#263238"/>
<path d="M231.21 112.405C231.21 112.405 234.205 117.249 234.601 119.356C236.803 120.824 237.691 114.372 236.803 110.276C232.861 112.302 231.21 112.405 231.21 112.405Z" fill="#263238"/>
<path d="M233.926 120.156C234.483 121.209 235.432 122 236.568 122.358C238.08 122.806 238.866 121.462 238.477 120.024C238.117 118.724 236.906 116.926 235.379 117.088C235.045 117.133 234.728 117.261 234.455 117.46C234.183 117.659 233.965 117.923 233.821 118.228C233.677 118.533 233.611 118.868 233.629 119.205C233.647 119.542 233.749 119.869 233.926 120.156Z" fill="#9F5B53"/>
<path d="M250.984 173.848C250.984 173.848 259.476 211.407 253.802 237.882C250.008 255.616 236.319 291.464 236.319 291.464L225.617 291.185C225.617 291.185 235.981 253.59 238.095 238.807C241.765 213.513 232.575 172.277 232.575 172.277L250.984 173.848Z" fill="#1B76A9"/>
<path opacity="0.6" d="M250.984 173.848C250.984 173.848 259.476 211.407 253.802 237.882C250.008 255.616 236.319 291.464 236.319 291.464L225.617 291.185C225.617 291.185 235.981 253.59 238.095 238.807C241.765 213.513 232.575 172.277 232.575 172.277L250.984 173.848Z" fill="#FAFAFA"/>
<path d="M241.192 181.43L235.842 189.871C237.453 199.88 238.475 209.976 238.902 220.105C246.426 206.628 242.866 188.565 241.192 181.43Z" fill="#1B76A9"/>
<path opacity="0.4" d="M241.192 181.43L235.842 189.871C237.453 199.88 238.475 209.976 238.902 220.105C246.426 206.628 242.866 188.565 241.192 181.43Z" fill="#FAFAFA"/>
<path d="M237.831 291.993L224.604 291.662L225.375 287.596L239.805 288.279L237.831 291.993Z" fill="#1B76A9"/>
<path opacity="0.3" d="M237.831 291.993L224.604 291.662L225.375 287.596L239.805 288.279L237.831 291.993Z" fill="black"/>
<path d="M245.494 173.444C245.494 173.444 240.517 213.278 229.72 235.019C221 252.584 197.725 277.591 197.725 277.591L191.779 271.463C191.779 271.463 207.494 244.305 213.976 232.619C229.867 203.993 216.912 182.179 225.888 171.697L245.494 173.444Z" fill="#1B76A9"/>
<path opacity="0.6" d="M245.494 173.444C245.494 173.444 240.517 213.278 229.72 235.019C221 252.584 197.725 277.591 197.725 277.591L191.779 271.463C191.779 271.463 207.494 244.305 213.976 232.619C229.867 203.993 216.912 182.179 225.888 171.697L245.494 173.444Z" fill="#FAFAFA"/>
<path d="M198.327 278.406L190.649 270.927L193.196 267.455L201.564 276.109L198.327 278.406Z" fill="#1B76A9"/>
<path opacity="0.3" d="M198.327 278.406L190.649 270.927L193.196 267.455L201.564 276.109L198.327 278.406Z" fill="black"/>
<path d="M225.639 170.171L224.31 172.314C224.208 172.483 224.406 172.681 224.692 172.703L251.006 174.978C251.234 174.978 251.432 174.905 251.461 174.765L251.879 172.563C251.879 172.409 251.725 172.255 251.476 172.233L226.065 170.031C225.988 170.016 225.908 170.021 225.834 170.046C225.759 170.07 225.692 170.113 225.639 170.171Z" fill="#263238"/>
<path d="M228.81 173.305L228.127 173.246C227.988 173.246 227.892 173.158 227.907 173.07L228.48 170.178C228.48 170.097 228.626 170.038 228.758 170.046L229.441 170.105C229.573 170.105 229.669 170.2 229.654 170.281L229.081 173.173C229.067 173.261 228.942 173.319 228.81 173.305Z" fill="#1B76A9"/>
<path opacity="0.6" d="M228.81 173.305L228.127 173.246C227.988 173.246 227.892 173.158 227.907 173.07L228.48 170.178C228.48 170.097 228.626 170.038 228.758 170.046L229.441 170.105C229.573 170.105 229.669 170.2 229.654 170.281L229.081 173.173C229.067 173.261 228.942 173.319 228.81 173.305Z" fill="#FAFAFA"/>
<path d="M249.076 175.059L248.393 175C248.261 175 248.165 174.912 248.18 174.824L248.753 171.932C248.753 171.851 248.892 171.793 249.024 171.8L249.707 171.859C249.846 171.859 249.942 171.954 249.927 172.035L249.354 174.927C249.329 174.976 249.287 175.016 249.237 175.04C249.187 175.063 249.13 175.07 249.076 175.059Z" fill="#1B76A9"/>
<path opacity="0.6" d="M249.076 175.059L248.393 175C248.261 175 248.165 174.912 248.18 174.824L248.753 171.932C248.753 171.851 248.892 171.793 249.024 171.8L249.707 171.859C249.846 171.859 249.942 171.954 249.927 172.035L249.354 174.927C249.329 174.976 249.287 175.016 249.237 175.04C249.187 175.063 249.13 175.07 249.076 175.059Z" fill="#FAFAFA"/>
<path d="M238.939 174.186L238.264 174.127C238.124 174.127 238.029 174.031 238.044 173.951L238.616 171.059C238.616 170.971 238.756 170.912 238.895 170.927L239.57 170.985C239.71 170.985 239.805 171.073 239.79 171.161L239.218 174.046C239.203 174.134 239.078 174.193 238.939 174.186Z" fill="#1B76A9"/>
<path opacity="0.6" d="M238.939 174.186L238.264 174.127C238.124 174.127 238.029 174.031 238.044 173.951L238.616 171.059C238.616 170.971 238.756 170.912 238.895 170.927L239.57 170.985C239.71 170.985 239.805 171.073 239.79 171.161L239.218 174.046C239.203 174.134 239.078 174.193 238.939 174.186Z" fill="#FAFAFA"/>
<path d="M243.894 114.665C243.989 115.157 244.327 115.502 244.627 115.436C244.928 115.37 245.127 114.93 245.031 114.438C244.936 113.946 244.598 113.601 244.297 113.66C243.996 113.719 243.798 114.174 243.894 114.665Z" fill="#263238"/>
<path d="M249.443 113.572C249.538 114.064 249.876 114.409 250.177 114.35C250.477 114.291 250.676 113.836 250.58 113.344C250.485 112.852 250.147 112.508 249.846 112.61C249.545 112.713 249.34 113.08 249.443 113.572Z" fill="#263238"/>
<path d="M249.707 112.625L250.822 112.052C250.822 112.052 250.397 113.095 249.707 112.625Z" fill="#263238"/>
<path d="M248.136 114.71C248.796 115.74 249.594 116.676 250.507 117.491C250.291 117.72 250.029 117.899 249.737 118.016C249.446 118.132 249.132 118.184 248.819 118.167L248.136 114.71Z" fill="#892B29"/>
<path d="M246.551 120.508C245.517 120.522 244.517 120.141 243.754 119.444C243.732 119.42 243.72 119.388 243.72 119.356C243.72 119.323 243.732 119.292 243.754 119.268C243.777 119.244 243.809 119.231 243.842 119.231C243.875 119.231 243.907 119.244 243.93 119.268C244.401 119.68 244.961 119.976 245.566 120.133C246.172 120.29 246.805 120.302 247.417 120.17C247.449 120.164 247.482 120.17 247.51 120.188C247.537 120.206 247.556 120.234 247.564 120.266C247.567 120.281 247.567 120.297 247.564 120.313C247.561 120.328 247.554 120.343 247.545 120.356C247.536 120.369 247.525 120.38 247.512 120.388C247.498 120.397 247.484 120.403 247.468 120.405C247.166 120.47 246.859 120.505 246.551 120.508Z" fill="#263238"/>
<path d="M241.163 111.568C241.122 111.577 241.079 111.577 241.038 111.568C240.984 111.533 240.945 111.479 240.93 111.416C240.914 111.353 240.924 111.286 240.957 111.23C241.183 110.833 241.5 110.495 241.884 110.246C242.267 109.997 242.705 109.843 243.159 109.799C243.223 109.799 243.285 109.823 243.331 109.867C243.377 109.911 243.405 109.97 243.409 110.034C243.41 110.066 243.405 110.097 243.393 110.127C243.382 110.157 243.365 110.184 243.343 110.207C243.322 110.231 243.295 110.249 243.266 110.262C243.237 110.275 243.206 110.283 243.174 110.284C242.799 110.326 242.44 110.457 242.125 110.665C241.81 110.873 241.548 111.152 241.361 111.48C241.338 111.509 241.307 111.533 241.273 111.548C241.238 111.564 241.201 111.57 241.163 111.568Z" fill="#263238"/>
<path d="M251.586 110.702C251.547 110.712 251.507 110.712 251.468 110.702C251.14 110.502 250.768 110.386 250.385 110.361C250.001 110.337 249.617 110.406 249.266 110.562C249.209 110.591 249.142 110.597 249.081 110.578C249.019 110.558 248.967 110.516 248.936 110.46C248.907 110.402 248.902 110.335 248.921 110.274C248.94 110.212 248.982 110.16 249.039 110.129C249.456 109.941 249.913 109.855 250.371 109.881C250.828 109.907 251.273 110.042 251.667 110.276C251.695 110.292 251.719 110.312 251.739 110.337C251.759 110.362 251.774 110.391 251.783 110.421C251.792 110.452 251.795 110.484 251.791 110.516C251.787 110.548 251.778 110.579 251.762 110.606C251.741 110.634 251.715 110.657 251.685 110.674C251.654 110.69 251.62 110.7 251.586 110.702Z" fill="#263238"/>
<path d="M226.586 142.8C225.566 144.835 224.434 146.813 223.195 148.723C221.962 150.617 220.655 152.452 219.253 154.235C217.834 156.015 216.309 157.709 214.688 159.307C213.858 160.1 213.029 160.893 212.133 161.627L211.473 162.192C211.163 162.446 210.834 162.677 210.489 162.882C209.643 163.381 208.675 163.635 207.693 163.616C206.693 163.574 205.73 163.234 204.925 162.64C204.303 162.188 203.754 161.643 203.296 161.025C202.547 160 201.923 158.888 201.439 157.715C200.563 155.593 199.873 153.4 199.376 151.16C198.4 146.826 197.754 142.424 197.446 137.992L200.037 137.669C200.455 139.754 200.903 141.882 201.424 143.967C201.945 146.051 202.474 148.129 203.112 150.14C203.707 152.118 204.443 154.051 205.314 155.924C205.712 156.749 206.204 157.525 206.782 158.236C206.994 158.484 207.241 158.699 207.516 158.874C207.722 158.992 207.788 158.97 207.795 158.955C207.901 158.923 208 158.874 208.089 158.808C208.184 158.742 208.302 158.647 208.427 158.544L208.984 158.016C209.718 157.333 210.452 156.584 211.186 155.814C212.596 154.294 213.902 152.665 215.179 151.013C216.457 149.362 217.624 147.6 218.739 145.816C219.305 144.936 219.848 144.033 220.383 143.123C220.919 142.213 221.426 141.273 221.851 140.422L226.586 142.8Z" fill="#9F5B53"/>
<path d="M201.189 138.572L200.536 133.074L195.09 136.583C195.09 136.583 196.873 139.519 199.34 140.311L201.189 138.572Z" fill="#9F5B53"/>
<path d="M198.518 130.843L194.958 134.205L195.09 136.583L200.536 133.074L198.518 130.843Z" fill="#9F5B53"/>
<path d="M224.677 133.816C221.602 134.366 217.293 143.189 217.293 143.189L225.052 150.198C225.052 150.198 231.217 143.475 230.887 139.467C230.608 136.062 228.597 133.126 224.677 133.816Z" fill="#1B76A9"/>
<path opacity="0.3" d="M224.677 133.816C221.602 134.366 217.293 143.189 217.293 143.189L225.052 150.198C225.052 150.198 231.217 143.475 230.887 139.467C230.608 136.062 228.597 133.126 224.677 133.816Z" fill="black"/>
<path d="M193.776 284.286C193.696 284.286 193.616 284.271 193.541 284.242C192.807 283.999 192.323 282.634 192.073 281.841C192.069 281.819 192.071 281.795 192.078 281.773C192.086 281.751 192.099 281.732 192.117 281.717C192.137 281.704 192.16 281.698 192.183 281.698C192.207 281.698 192.229 281.704 192.249 281.717C192.477 281.834 194.451 282.884 194.503 283.662C194.51 283.746 194.495 283.83 194.459 283.906C194.423 283.983 194.367 284.048 194.297 284.095C194.148 284.213 193.966 284.28 193.776 284.286ZM192.418 282.084C192.756 283.17 193.196 283.897 193.614 284.036C193.71 284.063 193.812 284.066 193.909 284.044C194.007 284.022 194.097 283.977 194.172 283.911C194.209 283.888 194.239 283.856 194.259 283.817C194.278 283.778 194.286 283.734 194.282 283.691C194.246 283.192 193.093 282.443 192.418 282.062V282.084Z" fill="#1B76A9"/>
<path d="M194.084 282.37C193.415 282.367 192.754 282.211 192.154 281.915C192.136 281.904 192.121 281.889 192.111 281.871C192.1 281.853 192.095 281.833 192.095 281.812C192.095 281.79 192.1 281.769 192.111 281.75C192.121 281.73 192.136 281.714 192.154 281.702C192.22 281.665 193.776 280.814 194.613 281.107C194.718 281.141 194.814 281.198 194.894 281.275C194.974 281.351 195.036 281.444 195.075 281.548C195.126 281.646 195.143 281.759 195.123 281.868C195.103 281.977 195.048 282.076 194.965 282.15C194.702 282.314 194.394 282.391 194.084 282.37ZM192.484 281.812C193.152 282.098 194.444 282.274 194.804 281.959C194.862 281.907 194.928 281.827 194.848 281.636C194.821 281.566 194.779 281.503 194.724 281.452C194.669 281.401 194.604 281.363 194.532 281.342C193.967 281.122 192.925 281.592 192.484 281.812Z" fill="#1B76A9"/>
<path d="M234.66 299.817C233.982 299.801 233.308 299.715 232.649 299.56C232.624 299.555 232.601 299.543 232.584 299.524C232.567 299.506 232.556 299.482 232.553 299.457C232.55 299.432 232.555 299.407 232.567 299.385C232.579 299.362 232.597 299.344 232.619 299.333C232.928 299.186 235.599 297.96 236.289 298.408C236.35 298.45 236.398 298.508 236.429 298.575C236.46 298.642 236.472 298.716 236.465 298.789C236.46 298.925 236.424 299.057 236.36 299.176C236.297 299.296 236.207 299.399 236.098 299.479C235.666 299.739 235.163 299.857 234.66 299.817ZM233.067 299.399C233.86 299.545 235.328 299.736 235.93 299.281C236.011 299.224 236.077 299.148 236.123 299.06C236.169 298.972 236.193 298.874 236.194 298.775C236.194 298.672 236.194 298.635 236.128 298.613C235.753 298.356 234.146 298.907 233.067 299.399Z" fill="#1B76A9"/>
<path d="M232.678 299.567C232.652 299.575 232.624 299.575 232.597 299.567C232.58 299.552 232.566 299.533 232.558 299.511C232.551 299.489 232.549 299.465 232.553 299.443C232.553 299.333 233.206 296.69 234.638 296.866C234.997 296.91 235.1 297.094 235.115 297.233C235.21 297.909 233.522 299.259 232.722 299.582L232.678 299.567ZM234.506 297.072C233.581 297.072 233.038 298.606 232.861 299.222C233.728 298.767 234.931 297.666 234.873 297.241C234.873 297.241 234.873 297.109 234.608 297.079L234.506 297.072Z" fill="#1B76A9"/>
<path d="M244.165 113.719L245.273 113.146C245.273 113.146 244.848 114.188 244.165 113.719Z" fill="#263238"/>
<path d="M90.671 115.238C97.1782 108.712 104.911 103.537 113.425 100.01C121.939 96.483 131.066 94.6736 140.282 94.686H150.213C150.213 94.686 197.064 106.951 197.064 157.142C197.064 206.203 164.629 249.626 150.22 264.056H140.297L90.671 214.431C77.5247 201.273 70.1401 183.434 70.1401 164.834C70.1401 146.235 77.5247 128.396 90.671 115.238ZM140.289 197.446C146.732 197.446 153.031 195.535 158.388 191.956C163.745 188.376 167.92 183.288 170.385 177.335C172.851 171.383 173.495 164.832 172.238 158.513C170.98 152.194 167.877 146.39 163.321 141.835C158.764 137.279 152.959 134.177 146.64 132.921C140.321 131.665 133.771 132.311 127.818 134.778C121.866 137.245 116.779 141.421 113.201 146.779C109.622 152.137 107.713 158.435 107.714 164.878C107.732 173.506 111.172 181.775 117.279 187.87C123.386 193.964 131.661 197.387 140.289 197.387V197.446Z" fill="#263238"/>
<path d="M201.116 113.909C198.211 111.007 195.068 108.353 191.721 105.975L192.139 105.373C195.524 107.777 198.701 110.46 201.637 113.396L201.116 113.909ZM187.331 103.105C185.607 102.063 183.816 101.079 182.017 100.169L182.34 99.5084C184.161 100.411 185.966 101.402 187.713 102.444L187.331 103.105Z" fill="#1B76A9"/>
<path opacity="0.2" d="M201.116 113.909C198.211 111.007 195.068 108.353 191.721 105.975L192.139 105.373C195.524 107.777 198.701 110.46 201.637 113.396L201.116 113.909ZM187.331 103.105C185.607 102.063 183.816 101.079 182.017 100.169L182.34 99.5084C184.161 100.411 185.966 101.402 187.713 102.444L187.331 103.105Z" fill="black"/>
<path d="M100.595 115.238C113.833 102.493 131.542 95.4495 149.918 95.6224C168.293 95.7952 185.868 103.17 198.863 116.162C211.859 129.154 219.24 146.726 219.418 165.102C219.596 183.477 212.558 201.189 199.817 214.431L150.22 264.034L100.595 214.409C87.4515 201.254 80.0687 183.419 80.0687 164.823C80.0687 146.228 87.4515 128.393 100.595 115.238ZM150.213 197.446C156.656 197.446 162.954 195.535 168.311 191.956C173.669 188.376 177.844 183.288 180.309 177.335C182.774 171.383 183.419 164.832 182.162 158.513C180.904 152.194 177.801 146.39 173.244 141.835C168.688 137.279 162.883 134.177 156.564 132.921C150.244 131.665 143.694 132.311 137.742 134.778C131.79 137.244 126.703 141.421 123.124 146.779C119.546 152.137 117.637 158.435 117.638 164.878C117.656 173.506 121.095 181.775 127.202 187.87C133.31 193.964 141.585 197.387 150.213 197.387V197.446Z" fill="#1B76A9"/>
<path opacity="0.2" d="M100.595 115.238C113.833 102.493 131.542 95.4495 149.918 95.6224C168.293 95.7952 185.868 103.17 198.863 116.162C211.859 129.154 219.24 146.726 219.418 165.102C219.596 183.477 212.558 201.189 199.817 214.431L150.22 264.034L100.595 214.409C87.4515 201.254 80.0687 183.419 80.0687 164.823C80.0687 146.228 87.4515 128.393 100.595 115.238ZM150.213 197.446C156.656 197.446 162.954 195.535 168.311 191.956C173.669 188.376 177.844 183.288 180.309 177.335C182.774 171.383 183.419 164.832 182.162 158.513C180.904 152.194 177.801 146.39 173.244 141.835C168.688 137.279 162.883 134.177 156.564 132.921C150.244 131.665 143.694 132.311 137.742 134.778C131.79 137.244 126.703 141.421 123.124 146.779C119.546 152.137 117.637 158.435 117.638 164.878C117.656 173.506 121.095 181.775 127.202 187.87C133.31 193.964 141.585 197.387 150.213 197.387V197.446Z" fill="black"/>
<g style="mix-blend-mode:color-dodge" opacity="0.4">
<path d="M150.22 260.064C150.196 260.063 150.171 260.058 150.148 260.048C150.126 260.038 150.105 260.023 150.088 260.005L102.54 212.464C93.1171 203.037 86.701 191.028 84.1028 177.955C81.5046 164.883 82.8409 151.333 87.9427 139.02C93.0446 126.706 101.683 116.182 112.765 108.778C123.848 101.374 136.877 97.4215 150.206 97.4215C163.534 97.4215 176.563 101.374 187.646 108.778C198.729 116.182 207.367 126.706 212.469 139.02C217.571 151.333 218.907 164.883 216.309 177.955C213.71 191.028 207.294 203.037 197.872 212.464L150.345 259.983C150.332 260.005 150.314 260.024 150.292 260.038C150.271 260.052 150.246 260.06 150.22 260.064ZM150.22 97.7834C136.965 97.7858 124.007 101.718 112.986 109.084C101.965 116.45 93.3759 126.918 88.3039 139.165C83.2319 151.413 81.9051 164.889 84.4913 177.89C87.0775 190.891 93.4605 202.833 102.833 212.207L150.25 259.616L197.644 212.229L197.769 212.354L197.644 212.229C207.016 202.85 213.397 190.903 215.98 177.898C218.563 164.894 217.233 151.415 212.158 139.166C207.082 126.918 198.489 116.449 187.464 109.083C176.44 101.717 163.479 97.7847 150.22 97.7834ZM150.22 200.543C143.16 200.543 136.259 198.45 130.389 194.527C124.519 190.605 119.944 185.03 117.242 178.507C114.541 171.984 113.835 164.807 115.212 157.883C116.59 150.958 119.991 144.598 124.983 139.607C129.976 134.615 136.337 131.216 143.261 129.84C150.186 128.463 157.363 129.171 163.885 131.874C170.407 134.577 175.982 139.153 179.903 145.024C183.824 150.894 185.916 157.796 185.915 164.856C185.893 174.314 182.124 183.377 175.431 190.06C168.739 196.742 159.67 200.499 150.213 200.507L150.22 200.543ZM150.22 129.529C143.233 129.529 136.403 131.601 130.594 135.483C124.784 139.365 120.256 144.882 117.582 151.337C114.908 157.792 114.209 164.896 115.572 171.748C116.935 178.601 120.3 184.896 125.24 189.837C130.181 194.777 136.476 198.142 143.328 199.505C150.181 200.868 157.284 200.168 163.74 197.495C170.195 194.821 175.712 190.293 179.594 184.483C183.476 178.674 185.548 171.843 185.548 164.856C185.548 155.482 181.826 146.492 175.2 139.861C168.575 133.229 159.587 129.5 150.213 129.492L150.22 129.529Z" fill="#FAFAFA"/>
</g>
</svg>
