<svg width="321" height="321" viewBox="0 0 321 321" fill="none" xmlns="http://www.w3.org/2000/svg">
<path d="M321 245.501H0V245.661H321V245.501Z" fill="#EBEBEB"/>
<path d="M212.643 257.577H207.064V257.737H212.643V257.577Z" fill="#EBEBEB"/>
<path d="M111.207 249.597H96.3257V249.757H111.207V249.597Z" fill="#EBEBEB"/>
<path d="M294.53 253.038H258.148V253.198H294.53V253.038Z" fill="#EBEBEB"/>
<path d="M63.8084 253.038H27.4263V253.198H63.8084V253.038Z" fill="#EBEBEB"/>
<path d="M152.154 216.868H28.1966C27.2244 216.868 26.292 216.481 25.6045 215.794C24.917 215.106 24.5308 214.174 24.5308 213.202V38.9437C24.5393 37.9771 24.9292 37.0529 25.6158 36.3723C26.3024 35.6918 27.2299 35.31 28.1966 35.31H152.154C153.126 35.31 154.059 35.6962 154.746 36.3837C155.434 37.0712 155.82 38.0036 155.82 38.9758V213.202C155.82 214.174 155.434 215.106 154.746 215.794C154.059 216.481 153.126 216.868 152.154 216.868ZM28.1966 35.4384C27.2675 35.4401 26.3769 35.8099 25.7199 36.467C25.0629 37.124 24.693 38.0146 24.6913 38.9437V213.202C24.693 214.131 25.0629 215.022 25.7199 215.679C26.3769 216.336 27.2675 216.705 28.1966 216.707H152.154C153.083 216.705 153.974 216.336 154.631 215.679C155.288 215.022 155.658 214.131 155.659 213.202V38.9437C155.658 38.0146 155.288 37.124 154.631 36.467C153.974 35.8099 153.083 35.4401 152.154 35.4384H28.1966Z" fill="#EBEBEB"/>
<path d="M291.025 216.868H167.055C166.083 216.866 165.152 216.479 164.465 215.792C163.778 215.105 163.391 214.173 163.389 213.202V38.9437C163.399 37.9776 163.79 37.0544 164.476 36.3742C165.162 35.694 166.089 35.3116 167.055 35.31H291.025C291.99 35.3133 292.914 35.6966 293.598 36.3768C294.281 37.057 294.67 37.9793 294.678 38.9437V213.202C294.678 214.172 294.294 215.102 293.609 215.789C292.924 216.476 291.995 216.864 291.025 216.868ZM167.055 35.4384C166.126 35.4401 165.235 35.8099 164.578 36.467C163.921 37.124 163.551 38.0146 163.55 38.9437V213.202C163.551 214.131 163.921 215.022 164.578 215.679C165.235 216.336 166.126 216.705 167.055 216.707H291.025C291.954 216.705 292.845 216.336 293.502 215.679C294.159 215.022 294.529 214.131 294.53 213.202V38.9437C294.529 38.0146 294.159 37.124 293.502 36.467C292.845 35.8099 291.954 35.4401 291.025 35.4384H167.055Z" fill="#EBEBEB"/>
<path d="M138.537 51.3985H52.0533V127.321H138.537V51.3985Z" fill="#E6E6E6"/>
<path d="M147.808 48.4453H46.4552C46.3411 48.4436 46.2279 48.4646 46.122 48.5071C46.0161 48.5495 45.9198 48.6126 45.8385 48.6927C45.7573 48.7727 45.6928 48.8681 45.6487 48.9734C45.6047 49.0786 45.582 49.1915 45.582 49.3056C45.5837 49.5315 45.6742 49.7477 45.834 49.9075C45.9937 50.0672 46.21 50.1577 46.4359 50.1594H147.808C148.035 50.1594 148.253 50.0697 148.414 49.9097C148.575 49.7498 148.666 49.5326 148.668 49.3056C148.668 49.0774 148.577 48.8586 148.416 48.6973C148.255 48.5359 148.036 48.4453 147.808 48.4453Z" fill="#F5F5F5"/>
<path d="M142.209 51.3985H53.7675V127.321H142.209V51.3985Z" fill="#EBEBEB"/>
<path d="M137.073 122.192V56.541L58.9099 56.541V122.192H137.073Z" fill="#FAFAFA"/>
<path d="M87.2285 122.185L96.2294 56.5345H110.462L101.462 122.185H87.2285Z" fill="white"/>
<path d="M104.524 122.185L113.518 56.5345H119.072L110.071 122.185H104.524Z" fill="white"/>
<path d="M137.073 122.185V56.5345H136.419V122.185H137.073Z" fill="#E6E6E6"/>
<g opacity="0.4">
<path opacity="0.4" d="M58.9677 46.9109H50.1274V170.13H58.9677V46.9109Z" fill="#F0F0F0"/>
<path opacity="0.4" d="M62.4153 46.9109H55.5266V170.13H62.4153V46.9109Z" fill="#E6E6E6"/>
<path opacity="0.4" d="M67.8081 46.9109H58.9677V170.13H67.8081V46.9109Z" fill="#F0F0F0"/>
<path opacity="0.4" d="M71.2556 46.9109H64.3669V170.13H71.2556V46.9109Z" fill="#E6E6E6"/>
<path opacity="0.4" d="M76.6484 46.9109H67.808V170.13H76.6484V46.9109Z" fill="#F0F0F0"/>
</g>
<g opacity="0.4">
<path opacity="0.4" d="M133.786 46.9109H128.689V170.13H133.786V46.9109Z" fill="#F0F0F0"/>
<path opacity="0.4" d="M135.764 46.9109H131.796V170.13H135.764V46.9109Z" fill="#E6E6E6"/>
<path opacity="0.4" d="M138.877 46.9109H133.78V170.13H138.877V46.9109Z" fill="#F0F0F0"/>
<path opacity="0.4" d="M140.861 46.9109H136.894V170.13H140.861V46.9109Z" fill="#E6E6E6"/>
<path opacity="0.4" d="M143.975 46.9109H138.877V170.13H143.975V46.9109Z" fill="#F0F0F0"/>
</g>
<path d="M281.819 245.501V100.653H235.376V245.501H281.819Z" fill="#F0F0F0"/>
<path d="M279.27 146.922V104.28H237.925V146.922H279.27Z" fill="#E6E6E6"/>
<path d="M279.27 193.39V150.748H237.925V193.39H279.27Z" fill="#E6E6E6"/>
<path d="M279.27 239.858V197.216H237.925V239.858H279.27Z" fill="#E6E6E6"/>
<path d="M279.27 146.928V104.286H263.008V146.928H279.27Z" fill="#E0E0E0"/>
<path d="M279.27 193.396V150.754H263.008V193.396H279.27Z" fill="#E0E0E0"/>
<path d="M273.068 129.889H261.801V146.922H273.068V129.889Z" fill="#F0F0F0"/>
<path d="M257.05 146.922H261.808V129.889H257.05V146.922Z" fill="#E0E0E0"/>
<path d="M259.426 134.319H244.955V146.922H259.426V134.319Z" fill="#F0F0F0"/>
<path d="M238.843 146.922H244.955V134.319H238.843V146.922Z" fill="#E0E0E0"/>
<path d="M279.27 239.858V197.216H263.008V239.858H279.27Z" fill="#E0E0E0"/>
<path d="M235.37 245.501V100.653H222.761V245.501H235.37Z" fill="#F5F5F5"/>
<path d="M274.641 214.858H243.928V239.858H274.641V214.858Z" fill="#F0F0F0"/>
<path d="M237.925 239.851H243.928V214.852H237.925V239.851Z" fill="#E0E0E0"/>
<path d="M269.255 173.552H241.963V193.39H269.255V173.552Z" fill="#FAFAFA"/>
<path d="M237.925 193.39H241.963V173.552H237.925V193.39Z" fill="#F0F0F0"/>
<path d="M232.95 245.501V100.653H186.507V245.501H232.95Z" fill="#F0F0F0"/>
<path d="M230.407 146.922V104.28H189.063V146.922H230.407Z" fill="#E6E6E6"/>
<path d="M230.401 193.39V150.748H189.056V193.39H230.401Z" fill="#E6E6E6"/>
<path d="M230.401 239.858V197.216H189.056V239.858H230.401Z" fill="#E6E6E6"/>
<path d="M230.401 146.928V104.286H214.139V146.928H230.401Z" fill="#E0E0E0"/>
<path d="M230.401 193.39V150.748H214.139V193.39H230.401Z" fill="#E0E0E0"/>
<path d="M206.859 181.012H195.592V193.39H206.859V181.012Z" fill="#F0F0F0"/>
<path d="M190.834 193.39H195.592V181.012H190.834V193.39Z" fill="#E0E0E0"/>
<path d="M217.047 168.634H205.78V181.012H217.047V168.634Z" fill="#F0F0F0"/>
<path d="M201.023 181.005H205.78V168.628H201.023V181.005Z" fill="#E0E0E0"/>
<path d="M225.06 181.012H213.792V193.39H225.06V181.012Z" fill="#F0F0F0"/>
<path d="M209.035 193.39H213.792V181.012H209.035V193.39Z" fill="#E0E0E0"/>
<path d="M230.401 239.858V197.216H214.139V239.858H230.401Z" fill="#E0E0E0"/>
<path d="M186.507 245.501V100.653H173.899V245.501H186.507Z" fill="#F5F5F5"/>
<path d="M219.429 206.005H194.025V239.858H219.429V206.005Z" fill="#F0F0F0"/>
<path d="M189.056 239.851H194.025V205.999H189.056V239.851Z" fill="#E0E0E0"/>
<path d="M227.595 120.054H194.025V146.922H227.595V120.054Z" fill="#FAFAFA"/>
<path d="M189.056 146.922H194.025V120.054H189.056V146.922Z" fill="#F0F0F0"/>
<path d="M220.84 84.9376C221.655 81.7168 219.705 78.4452 216.484 77.6302C213.263 76.8152 209.991 78.7655 209.176 81.9863C208.361 85.207 210.312 88.4787 213.533 89.2937C216.753 90.1086 220.025 88.1584 220.84 84.9376Z" fill="#F5F5F5"/>
<path d="M224.381 88.924C227.703 88.8787 230.359 86.1491 230.314 82.8271C230.269 79.5051 227.539 76.8488 224.217 76.894C220.895 76.9392 218.239 79.6689 218.284 82.9909C218.329 86.3129 221.059 88.9692 224.381 88.924Z" fill="#E0E0E0"/>
<path d="M231.353 85.6381C234.673 85.5123 237.263 82.719 237.137 79.3991C237.011 76.0792 234.218 73.4899 230.898 73.6157C227.578 73.7415 224.988 76.5348 225.114 79.8547C225.24 83.1746 228.033 85.7639 231.353 85.6381Z" fill="#F5F5F5"/>
<path d="M239.742 90.6456C243.062 90.5198 245.651 87.7265 245.525 84.4066C245.399 81.0867 242.606 78.4974 239.286 78.6232C235.966 78.749 233.377 81.5423 233.503 84.8622C233.628 88.1821 236.422 90.7714 239.742 90.6456Z" fill="#E0E0E0"/>
<path d="M250.468 88.6395C253.338 86.9654 254.307 83.2819 252.633 80.4123C250.959 77.5426 247.275 76.5735 244.406 78.2477C241.536 79.9219 240.567 83.6054 242.241 86.475C243.915 89.3446 247.599 90.3137 250.468 88.6395Z" fill="#E0E0E0"/>
<path d="M256.877 83.9415C256.877 83.9415 256.177 100.633 229.329 100.633C202.48 100.633 201.781 83.9415 201.781 83.9415H256.877Z" fill="#F0F0F0"/>
<path d="M46.6028 176.967H39.1813V241.341H46.6028V176.967Z" fill="#F0F0F0"/>
<path d="M155.666 241.341H42.0317V245.417H155.666V241.341Z" fill="#F0F0F0"/>
<path d="M46.5963 241.341H158.51V176.967H46.5963L46.5963 241.341Z" fill="#F5F5F5"/>
<path d="M57.0032 206.005H148.103C150.627 206.005 152.674 203.958 152.674 201.434V189.467C152.674 186.943 150.627 184.896 148.103 184.896H57.0032C54.4787 184.896 52.4321 186.943 52.4321 189.467V201.434C52.4321 203.958 54.4787 206.005 57.0032 206.005Z" fill="#F0F0F0"/>
<path d="M57.0032 233.418H148.103C150.627 233.418 152.674 231.372 152.674 228.847V216.88C152.674 214.356 150.627 212.309 148.103 212.309H57.0032C54.4787 212.309 52.4321 214.356 52.4321 216.88V228.847C52.4321 231.372 54.4787 233.418 57.0032 233.418Z" fill="#F0F0F0"/>
<path d="M132.368 196.895H72.7515C72.3678 196.895 71.9997 196.743 71.7278 196.472C71.4558 196.202 71.3022 195.834 71.3005 195.451C71.3022 195.066 71.4556 194.698 71.7274 194.426C71.9991 194.155 72.3672 194.001 72.7515 194H132.368C132.751 194.001 133.119 194.155 133.389 194.427C133.66 194.699 133.812 195.067 133.812 195.451C133.812 195.834 133.66 196.201 133.389 196.472C133.118 196.743 132.751 196.895 132.368 196.895Z" fill="#F5F5F5"/>
<path d="M132.368 224.308H72.7515C72.3678 224.308 71.9997 224.156 71.7278 223.886C71.4558 223.615 71.3022 223.248 71.3005 222.864C71.3022 222.48 71.4556 222.112 71.7274 221.84C71.9991 221.568 72.3672 221.415 72.7515 221.413H132.368C132.751 221.415 133.119 221.568 133.389 221.84C133.66 222.112 133.812 222.48 133.812 222.864C133.812 223.247 133.66 223.614 133.389 223.885C133.118 224.156 132.751 224.308 132.368 224.308Z" fill="#F5F5F5"/>
<path d="M106.566 176.967H117.422V151.358H106.566V176.967Z" fill="#E0E0E0"/>
<path d="M124.118 151.358H117.422V176.967H124.118V151.358Z" fill="#EBEBEB"/>
<path d="M94.098 148.02H106.566L111.066 176.967H98.592L94.098 148.02Z" fill="#E6E6E6"/>
<path d="M111.958 148.02H106.566L111.066 176.967H116.459L111.958 148.02Z" fill="#F0F0F0"/>
<path d="M88.397 176.967H100.454V150.517H88.397V176.967Z" fill="#EBEBEB"/>
<path d="M106.566 150.523H100.454V176.974H106.566V150.523Z" fill="#F5F5F5"/>
<path d="M84.2561 176.974H92.9808V154.805H84.2561V176.974Z" fill="#E0E0E0"/>
<path d="M99.0927 154.799H92.9808V176.967H99.0927V154.799Z" fill="#E6E6E6"/>
<path d="M160.5 274.493C229.247 274.493 284.977 271.24 284.977 267.226C284.977 263.212 229.247 259.959 160.5 259.959C91.7531 259.959 36.0226 263.212 36.0226 267.226C36.0226 271.24 91.7531 274.493 160.5 274.493Z" fill="#F5F5F5" fill-opacity="0.5"/>
<path d="M216.232 228.481H152.315C151.623 228.493 150.937 228.356 150.304 228.08C149.67 227.804 149.103 227.395 148.641 226.88C148.179 226.366 147.833 225.758 147.626 225.099C147.419 224.439 147.356 223.743 147.442 223.056L160.815 89.8094C160.99 88.3391 161.69 86.9813 162.785 85.9849C163.881 84.9885 165.298 84.4203 166.779 84.3845H230.696C231.388 84.3728 232.074 84.5097 232.708 84.7859C233.342 85.0621 233.909 85.471 234.372 85.9853C234.834 86.4995 235.181 87.107 235.389 87.7667C235.596 88.4264 235.66 89.123 235.575 89.8094L222.196 223.056C222.022 224.527 221.323 225.886 220.227 226.882C219.131 227.879 217.713 228.447 216.232 228.481Z" fill="#263238"/>
<path d="M200.484 230.086H185.942V230.728H200.484V230.086Z" fill="#1B76A9"/>
<path d="M209.902 230.086H205.267V230.728H209.902V230.086Z" fill="#1B76A9"/>
<path d="M214.608 228.481H150.69C149.999 228.493 149.313 228.356 148.679 228.08C148.046 227.804 147.479 227.395 147.017 226.88C146.554 226.366 146.208 225.758 146.001 225.099C145.795 224.439 145.732 223.743 145.817 223.056L159.216 89.8094C159.392 88.3391 160.091 86.9813 161.187 85.9849C162.282 84.9885 163.7 84.4203 165.18 84.3845H229.098C229.789 84.3728 230.475 84.5097 231.109 84.7859C231.743 85.0621 232.311 85.471 232.773 85.9853C233.236 86.4995 233.583 87.107 233.79 87.7667C233.998 88.4264 234.062 89.123 233.977 89.8094L220.572 223.056C220.396 224.527 219.697 225.885 218.601 226.881C217.506 227.877 216.088 228.445 214.608 228.481Z" fill="#1B76A9"/>
<g opacity="0.4">
<path opacity="0.2" d="M212.874 226.055H152.912C152.252 226.067 151.598 225.938 150.993 225.675C150.389 225.412 149.848 225.023 149.407 224.533C148.966 224.042 148.636 223.463 148.438 222.834C148.241 222.205 148.181 221.541 148.263 220.887L161.2 91.9794C161.366 90.5773 162.034 89.2825 163.079 88.333C164.124 87.3835 165.476 86.8432 166.888 86.8113H226.851C227.51 86.8 228.164 86.9302 228.768 87.1931C229.373 87.456 229.914 87.8455 230.355 88.3354C230.796 88.8252 231.127 89.4039 231.325 90.0326C231.524 90.6612 231.585 91.3251 231.505 91.9794L218.562 220.887C218.396 222.289 217.729 223.583 216.684 224.533C215.639 225.482 214.286 226.023 212.874 226.055Z" fill="white"/>
<g opacity="0.4">
<path opacity="0.4" d="M120.227 186.514L117.602 185.211L184.902 68.0199L187.528 69.3232L120.227 186.514Z" fill="white"/>
<path opacity="0.4" d="M132.509 190.533L130.005 189.03L205.209 76.1669L207.719 77.6692L132.509 190.533Z" fill="white"/>
<path opacity="0.4" d="M140.868 215.519L138.325 214.068L226.754 75.9486L229.297 77.3995L140.868 215.519Z" fill="white"/>
<path opacity="0.4" d="M181.211 238.214L178.174 238.118L192.433 130.493L195.662 129.151L181.211 238.214Z" fill="white"/>
<path opacity="0.4" d="M168.454 258.322L165.918 256.871L254.348 118.744L256.89 120.195L168.454 258.322Z" fill="white"/>
<path opacity="0.4" d="M148.302 87.3569L150.17 84.7568L275.476 167.183L273.614 169.777L148.302 87.3569Z" fill="white"/>
<path opacity="0.4" d="M152.334 71.5381L152.873 70.7292L281.812 147.904L281.279 148.707L152.334 71.5381Z" fill="white"/>
<path opacity="0.4" d="M171.619 129.568L172.383 128.419L188.446 138.03L187.682 139.179L171.619 129.568Z" fill="white"/>
<path opacity="0.4" d="M190.77 161.54L191.541 160.391L219.275 176.987L218.505 178.142L190.77 161.54Z" fill="white"/>
<path opacity="0.4" d="M144.039 206.056L144.803 204.901L181.75 227.011L180.986 228.167L144.039 206.056Z" fill="white"/>
<path opacity="0.4" d="M161.103 112.883L162.246 112.1L172.236 127.861L171.093 128.644L161.103 112.883Z" fill="white"/>
<path opacity="0.4" d="M168.467 51.4306L169.084 50.6795L286.698 143.083L286.082 143.827L168.467 51.4306Z" fill="white"/>
</g>
</g>
<path d="M197.498 195.688C197.132 198.825 195.642 201.724 193.304 203.848C190.966 205.972 187.938 207.179 184.78 207.244C183.306 207.273 181.843 206.985 180.49 206.398C179.137 205.811 177.927 204.94 176.94 203.843C175.954 202.747 175.216 201.451 174.775 200.044C174.334 198.637 174.202 197.151 174.386 195.688C175.555 184.055 187.759 177.564 187.759 177.564C187.759 177.564 198.667 184.055 197.498 195.688Z" fill="white"/>
<path opacity="0.4" d="M189.583 195.688C189.466 196.675 188.997 197.587 188.26 198.255C187.524 198.923 186.571 199.302 185.577 199.322C185.111 199.335 184.649 199.247 184.221 199.064C183.794 198.881 183.411 198.607 183.099 198.262C182.788 197.916 182.555 197.507 182.418 197.063C182.28 196.618 182.241 196.149 182.302 195.688C182.418 194.7 182.888 193.787 183.624 193.118C184.36 192.449 185.314 192.069 186.308 192.048C186.774 192.034 187.237 192.122 187.665 192.306C188.094 192.489 188.477 192.764 188.788 193.11C189.1 193.456 189.332 193.866 189.469 194.311C189.607 194.757 189.645 195.226 189.583 195.688Z" fill="#1B76A9"/>
<path d="M188.196 173.911C188.116 173.909 188.037 173.891 187.965 173.856C187.893 173.822 187.828 173.773 187.776 173.713C187.723 173.653 187.684 173.582 187.66 173.506C187.636 173.429 187.628 173.349 187.637 173.269L193.011 131.36C193.151 130.292 193.531 129.269 194.122 128.368L208.502 106.187C208.593 106.049 208.627 105.881 208.597 105.718C208.567 105.555 208.476 105.411 208.342 105.314L193.614 96.3771C193.545 96.3315 193.485 96.2721 193.44 96.2026C193.394 96.133 193.364 96.0548 193.35 95.9728C193.336 95.8908 193.339 95.8068 193.359 95.7262C193.379 95.6455 193.416 95.5698 193.467 95.504C193.558 95.3578 193.702 95.2516 193.868 95.2064C194.035 95.1612 194.212 95.1803 194.366 95.26L209.087 104.197C209.293 104.333 209.471 104.509 209.608 104.716C209.745 104.922 209.838 105.154 209.883 105.397C209.928 105.641 209.924 105.891 209.869 106.132C209.815 106.374 209.713 106.602 209.568 106.803L195.168 128.965C194.696 129.691 194.391 130.514 194.276 131.373L188.908 173.289C188.883 173.46 188.797 173.617 188.666 173.731C188.536 173.845 188.369 173.909 188.196 173.911Z" fill="white"/>
<path d="M186.263 79.8648C186.556 77.3374 187.755 75.0017 189.638 73.2901C191.52 71.5786 193.96 70.6072 196.503 70.5558C197.691 70.5318 198.871 70.7638 199.961 71.2362C201.051 71.7086 202.027 72.4103 202.822 73.2936C203.617 74.1768 204.212 75.2209 204.568 76.3548C204.923 77.4887 205.03 78.6859 204.881 79.8648C203.938 89.238 194.102 94.4575 194.102 94.4575C194.102 94.4575 185.32 89.238 186.263 79.8648Z" fill="#1B76A9"/>
<path opacity="0.3" d="M186.263 79.8648C186.556 77.3374 187.755 75.0017 189.638 73.2901C191.52 71.5786 193.96 70.6072 196.503 70.5558C197.691 70.5318 198.871 70.7638 199.961 71.2362C201.051 71.7086 202.027 72.4103 202.822 73.2936C203.617 74.1768 204.212 75.2209 204.568 76.3548C204.923 77.4887 205.03 78.6859 204.881 79.8648C203.938 89.238 194.102 94.4575 194.102 94.4575C194.102 94.4575 185.32 89.238 186.263 79.8648Z" fill="black"/>
<path d="M199.421 83.9154C201.891 81.5674 202.171 77.8538 200.048 75.621C197.924 73.3883 194.201 73.4817 191.732 75.8298C189.263 78.1779 188.983 81.8914 191.106 84.1242C193.229 86.357 196.952 86.2635 199.421 83.9154Z" fill="#1B76A9"/>
<path d="M111.22 115.952C111.021 116.484 110.79 117.171 110.578 117.794C110.366 118.417 110.167 119.078 109.936 119.72C109.538 121.004 109.153 122.34 108.806 123.668C108.459 124.997 108.164 126.339 107.83 127.681L107.394 129.703L107.182 130.718L107.137 130.955V131.09C107.137 131.167 107.137 131.315 107.137 131.424C107.113 132.666 107.216 133.907 107.445 135.128C107.651 136.451 107.927 137.799 108.222 139.153C108.832 141.856 109.506 144.604 110.199 147.313L107.631 148.276C106.361 145.679 105.242 143.01 104.28 140.283C103.792 138.91 103.356 137.516 102.996 136.065C102.81 135.346 102.643 134.602 102.502 133.831C102.343 133.012 102.255 132.181 102.238 131.347C102.223 131.105 102.223 130.863 102.238 130.621L102.271 130.23L102.309 129.941L102.444 128.856C102.527 128.137 102.649 127.411 102.758 126.692C103.002 125.254 103.253 123.816 103.587 122.391C103.921 120.966 104.229 119.547 104.672 118.134C104.883 117.428 105.102 116.728 105.314 116.022C105.525 115.316 105.789 114.648 106.11 113.865L111.22 115.952Z" fill="#FFC3BD"/>
<path d="M107.516 147.885L106.617 151.692L108.999 154.51C108.999 154.51 112.17 145.317 108.825 145.76L107.516 147.885Z" fill="#FFC3BD"/>
<path d="M120.298 262.052C119.819 262.039 119.344 261.975 118.879 261.859C118.855 261.854 118.832 261.841 118.815 261.823C118.798 261.805 118.786 261.783 118.781 261.758C118.776 261.734 118.779 261.708 118.788 261.685C118.798 261.662 118.814 261.642 118.834 261.628C119.02 261.506 120.645 260.453 121.267 260.735C121.339 260.767 121.4 260.816 121.445 260.88C121.491 260.943 121.518 261.017 121.524 261.095C121.551 261.215 121.547 261.34 121.513 261.458C121.478 261.576 121.413 261.683 121.325 261.769C121.028 261.983 120.663 262.084 120.298 262.052ZM119.239 261.679C120.176 261.865 120.882 261.833 121.165 261.583C121.223 261.524 121.265 261.451 121.286 261.371C121.308 261.291 121.308 261.207 121.287 261.127C121.286 261.093 121.275 261.059 121.256 261.031C121.236 261.002 121.209 260.98 121.177 260.967C120.837 260.819 119.9 261.294 119.239 261.679Z" fill="#1B76A9"/>
<path d="M118.911 261.859H118.847C118.827 261.848 118.811 261.833 118.8 261.813C118.788 261.794 118.782 261.772 118.783 261.75C118.783 261.679 118.783 260.132 119.348 259.618C119.418 259.55 119.504 259.499 119.597 259.469C119.691 259.439 119.79 259.431 119.887 259.445C119.989 259.445 120.087 259.48 120.166 259.544C120.244 259.609 120.298 259.698 120.317 259.798C120.446 260.44 119.483 261.564 118.969 261.859C118.95 261.865 118.93 261.865 118.911 261.859ZM119.804 259.683C119.699 259.683 119.599 259.722 119.521 259.792C119.188 260.293 119.02 260.885 119.04 261.487C119.547 261.076 120.15 260.203 120.073 259.837C120.073 259.779 120.022 259.702 119.861 259.683H119.804Z" fill="#1B76A9"/>
<path d="M120.375 105.384C120.856 105.352 120.041 103.876 119.816 103.76C119.284 103.484 113.563 104.299 113.839 105.185C113.986 105.672 114.253 106.114 114.616 106.469C114.918 106.675 116.151 105.558 120.375 105.384Z" fill="#263238"/>
<path d="M116.504 108.883C116.343 109.339 115.143 108.158 115.091 107.901C114.976 107.317 117.313 102.033 118.089 102.54C118.522 102.812 118.877 103.19 119.123 103.638C119.226 104.004 117.82 104.871 116.504 108.883Z" fill="#263238"/>
<path d="M117.743 95.0609C118.385 98.2709 119.778 104.691 117.569 106.842C117.569 106.842 118.468 110.052 124.4 110.052C130.923 110.052 127.482 106.842 127.482 106.842C123.919 105.994 123.983 103.356 124.58 100.871L117.743 95.0609Z" fill="#FFC3BD"/>
<path d="M116.048 108.119C115.117 108.151 116.401 105.166 116.818 104.909C117.788 104.267 128.901 104.787 128.541 106.533C128.368 107.285 127.854 108.723 127.289 109.159C126.724 109.596 124.169 107.67 116.048 108.119Z" fill="#263238"/>
<path d="M130.628 88.2172C130.668 88.2177 130.707 88.2087 130.743 88.1908C130.779 88.1729 130.81 88.1467 130.833 88.1145C131.011 87.8513 131.248 87.6339 131.526 87.4799C131.804 87.326 132.114 87.2398 132.432 87.2285C132.468 87.2344 132.506 87.2322 132.542 87.2222C132.577 87.2121 132.611 87.1944 132.639 87.1703C132.667 87.1462 132.69 87.1162 132.705 87.0825C132.721 87.0488 132.729 87.0121 132.729 86.9749C132.729 86.9378 132.721 86.9011 132.705 86.8674C132.69 86.8336 132.667 86.8037 132.639 86.7796C132.611 86.7555 132.577 86.7378 132.542 86.7277C132.506 86.7177 132.468 86.7155 132.432 86.7214C132.029 86.725 131.632 86.8261 131.277 87.0162C130.921 87.2063 130.617 87.4796 130.39 87.8127C130.36 87.8507 130.342 87.8964 130.338 87.9444C130.333 87.9924 130.343 88.0407 130.365 88.0834C130.388 88.1261 130.422 88.1615 130.464 88.1852C130.506 88.2089 130.554 88.2201 130.602 88.2172H130.628Z" fill="#263238"/>
<path d="M132.079 91.2795C132.435 92.2867 132.93 93.2395 133.549 94.1108C133.321 94.2588 133.063 94.3556 132.793 94.3944C132.524 94.4332 132.25 94.4131 131.989 94.3355L132.079 91.2795Z" fill="#FF5652"/>
<path d="M131.713 90.522C131.713 90.9586 131.925 91.3181 132.207 91.3245C132.489 91.3309 132.727 90.9971 132.74 90.5605C132.753 90.124 132.534 89.7709 132.252 89.758C131.969 89.7452 131.725 90.0919 131.713 90.522Z" fill="#263238"/>
<path d="M132.124 89.7772L133.176 89.5204C133.176 89.5204 132.618 90.3101 132.124 89.7772Z" fill="#263238"/>
<path d="M112.652 261.737H118.032L117.486 249.282H112.112L112.652 261.737Z" fill="#FFC3BD"/>
<path d="M118.449 261.114H112.408C112.304 261.11 112.203 261.146 112.124 261.214C112.045 261.282 111.995 261.377 111.984 261.48L111.342 266.257C111.33 266.378 111.344 266.501 111.383 266.616C111.422 266.732 111.484 266.839 111.566 266.929C111.649 267.019 111.749 267.091 111.861 267.14C111.972 267.189 112.093 267.214 112.215 267.213C114.321 267.181 115.335 267.053 117.993 267.053C119.624 267.053 122.012 267.226 124.272 267.226C126.532 267.226 126.628 264.992 125.684 264.793C121.46 263.881 120.786 262.636 119.354 261.442C119.099 261.232 118.779 261.116 118.449 261.114Z" fill="#263238"/>
<g opacity="0.2">
<path opacity="0.2" d="M112.106 249.282H117.486L117.768 255.702H112.388L112.106 249.282Z" fill="black"/>
</g>
<path d="M139.603 113.474C140.746 116.099 141.978 118.789 143.23 121.396C144.453 123.966 145.823 126.463 147.333 128.875C147.507 129.163 147.695 129.441 147.897 129.71L148.405 130.416C148.495 130.567 148.64 130.677 148.809 130.724C149.316 130.885 150.575 130.57 151.705 130.011C154.174 128.702 156.482 127.108 158.58 125.261L160.596 127.084C160.121 127.726 159.64 128.323 159.132 128.914C158.625 129.504 158.099 130.082 157.54 130.628C156.405 131.776 155.157 132.809 153.817 133.709C153.074 134.201 152.282 134.615 151.454 134.942C150.454 135.343 149.378 135.52 148.302 135.462C146.976 135.362 145.734 134.774 144.816 133.812C144.713 133.709 144.578 133.562 144.521 133.491L144.322 133.254L143.93 132.772C143.654 132.451 143.416 132.13 143.185 131.809C141.377 129.288 139.767 126.631 138.37 123.861C136.964 121.145 135.699 118.436 134.518 115.579L139.603 113.474Z" fill="#FFC3BD"/>
<path d="M158.625 125.107L161.142 123.906L162.651 127.918C162.651 127.918 158.889 129.235 157.097 127.764L157.194 127.077C157.247 126.655 157.406 126.253 157.657 125.908C157.907 125.564 158.24 125.288 158.625 125.107Z" fill="#FFC3BD"/>
<path d="M164.904 123.829L165.36 126.789L162.67 127.899L161.161 123.887L164.904 123.829Z" fill="#FFC3BD"/>
<path d="M117.178 88.4611C117.351 93.7962 117.313 96.056 119.919 98.8936C123.842 103.163 130.358 101.853 131.783 96.5889C133.067 91.8509 132.573 83.9222 127.424 81.5982C126.3 81.0767 125.061 80.8533 123.826 80.9497C122.59 81.0461 121.401 81.4589 120.371 82.1485C119.342 82.838 118.507 83.781 117.948 84.8866C117.389 85.9923 117.123 87.2233 117.178 88.4611Z" fill="#FFC3BD"/>
<path d="M115.714 82.131C117.961 78.0608 127.803 77.8425 131.122 82.3878C134.441 86.9332 129.684 86.8112 128.4 91.2795C128.56 95.3883 130.23 97.1538 132.663 99.5036C128.92 103.94 113.595 104.64 111.188 99.5036C108.78 94.3676 108.601 81.489 115.714 82.131Z" fill="#263238"/>
<path d="M115.894 82.5997C115.894 82.5997 116.253 80.9369 114.18 81.091C114.831 81.495 115.41 82.0049 115.894 82.5997Z" fill="#263238"/>
<path d="M127.437 90.9329C127.541 91.9408 127.982 92.8843 128.689 93.61C129.645 94.5922 130.615 94.0273 130.775 92.8653C130.917 91.8188 130.589 90.0469 129.427 89.4884C128.265 88.9298 127.347 89.7452 127.437 90.9329Z" fill="#FFC3BD"/>
<path d="M128.567 140.675C128.567 140.675 125.813 177.584 122.789 198.384C120.343 215.186 118.667 254.463 118.667 254.463H111.316C111.316 254.463 107.464 216.534 108.613 199.893C111.56 157.849 105.596 150.401 112.465 140.656L128.567 140.675Z" fill="#263238"/>
<path opacity="0.2" d="M120.24 162.535C120.23 169.34 121.787 176.056 124.792 182.161C125.582 174.958 126.301 167.44 126.898 160.808C124.548 153.297 120.381 154.221 120.24 162.535Z" fill="black"/>
<path d="M119.656 254.604H110.315L109.795 251.33L119.675 250.996L119.656 254.604Z" fill="#1B76A9"/>
<path d="M120.863 252.158C120.852 252.139 120.846 252.117 120.846 252.094C120.846 252.072 120.852 252.049 120.863 252.03C120.873 252.007 120.891 251.988 120.913 251.975C120.935 251.963 120.96 251.957 120.985 251.959C121.261 251.959 123.656 252.19 124.034 252.845C124.068 252.906 124.085 252.975 124.085 253.044C124.085 253.114 124.068 253.182 124.034 253.243C123.989 253.349 123.917 253.441 123.826 253.512C123.735 253.583 123.628 253.629 123.514 253.648C122.744 253.783 121.537 252.781 120.882 252.178L120.863 252.158ZM123.784 252.942C123.534 252.601 122.282 252.351 121.332 252.248C122.243 253.044 123.026 253.474 123.457 253.397C123.531 253.385 123.602 253.354 123.661 253.306C123.721 253.259 123.768 253.198 123.797 253.128C123.812 253.104 123.821 253.076 123.821 253.047C123.821 253.019 123.812 252.991 123.797 252.967L123.784 252.942Z" fill="#1B76A9"/>
<path d="M120.863 252.158C120.852 252.139 120.847 252.117 120.847 252.094C120.847 252.072 120.852 252.05 120.863 252.03C120.895 251.985 121.762 250.823 122.628 250.707C122.755 250.687 122.884 250.693 123.007 250.725C123.131 250.757 123.247 250.815 123.347 250.894C123.63 251.112 123.623 251.317 123.566 251.452C123.335 252.017 121.64 252.332 120.946 252.235C120.928 252.229 120.911 252.219 120.897 252.206C120.882 252.192 120.871 252.176 120.863 252.158ZM123.302 251.176C123.269 251.137 123.233 251.1 123.193 251.067C123.119 251.01 123.034 250.969 122.944 250.946C122.853 250.923 122.759 250.918 122.667 250.932C122.087 251.12 121.58 251.483 121.216 251.972C121.98 251.972 123.193 251.67 123.328 251.33C123.341 251.304 123.36 251.253 123.302 251.176Z" fill="#1B76A9"/>
<path d="M115.329 249.956L120.285 252.088L122.391 247.504L125.132 241.508L125.453 240.808L120.497 238.67L120.137 239.453L117.473 245.263L115.329 249.956Z" fill="#FFC3BD"/>
<path opacity="0.2" d="M117.473 245.263L122.391 247.504L125.132 241.508L120.137 239.453L117.473 245.263Z" fill="black"/>
<path d="M134.338 140.675C134.338 140.675 142.742 177.359 142.928 196.24C143.095 213.298 124.471 245.745 124.471 245.745L117.736 242.676C117.736 242.676 129.812 203.623 128.605 198.153C125.119 182.283 119.232 148.077 119.219 140.662L134.338 140.675Z" fill="#263238"/>
<path d="M120.991 251.369L115.855 248.159C115.769 248.103 115.665 248.081 115.564 248.097C115.462 248.112 115.369 248.164 115.303 248.242L112.215 251.927C112.139 252.025 112.085 252.137 112.056 252.257C112.026 252.377 112.023 252.501 112.045 252.623C112.068 252.744 112.116 252.859 112.186 252.961C112.256 253.062 112.347 253.147 112.453 253.211C114.263 254.296 115.194 254.733 117.46 256.145C118.853 257.012 121.646 258.951 123.572 260.151C125.498 261.352 126.782 259.509 126.069 258.867C122.949 255.863 122.217 253.924 121.575 252.158C121.483 251.833 121.275 251.552 120.991 251.369Z" fill="#263238"/>
<path d="M124.959 247.119L116.285 243.556L117.21 240.057L126.493 243.857L124.959 247.119Z" fill="#1B76A9"/>
<path d="M114.918 114.09C115.027 110.995 113.024 107.079 108.286 108.068C106.052 108.53 103.747 116.594 103.747 116.594L109.782 123.656C111.875 122.705 114.873 116.048 114.918 114.09Z" fill="#1B76A9"/>
<path opacity="0.2" d="M110.796 114.918C110.777 117.852 110.437 120.776 109.782 123.636C111.015 123.065 112.568 120.478 113.634 118.07L110.796 114.918Z" fill="black"/>
<path d="M136.585 108.222C136.585 108.222 139.153 109.121 134.338 140.675H112.51C112.786 131.79 112.748 126.307 108.318 108.061C111.372 107.43 114.469 107.022 117.582 106.842C120.882 106.604 124.195 106.604 127.495 106.842C131.745 107.214 136.585 108.222 136.585 108.222Z" fill="#1B76A9"/>
<path opacity="0.2" d="M136.438 119.02L133.061 119.451C133.273 122.019 134.923 125.074 136.271 126.699C136.547 124.349 136.752 122.301 136.913 120.516C136.65 119.592 136.438 119.02 136.438 119.02Z" fill="black"/>
<path d="M136.585 108.222C139.269 108.864 142.627 116.208 142.627 116.208L137.272 124.657C137.272 124.657 130.467 119.572 130.531 112.222C130.563 109.14 133.337 107.432 136.585 108.222Z" fill="#1B76A9"/>
<path d="M112.157 139.397L111.194 141.323C111.117 141.478 111.297 141.632 111.547 141.632H134.454C134.653 141.632 134.814 141.535 134.826 141.407L135 139.481C135 139.346 134.846 139.231 134.627 139.231H112.51C112.442 139.224 112.373 139.237 112.311 139.266C112.249 139.295 112.196 139.341 112.157 139.397Z" fill="#1B76A9"/>
<path opacity="0.2" d="M112.157 139.397L111.194 141.323C111.117 141.478 111.297 141.632 111.547 141.632H134.454C134.653 141.632 134.814 141.535 134.826 141.407L135 139.481C135 139.346 134.846 139.231 134.627 139.231H112.51C112.442 139.224 112.373 139.237 112.311 139.266C112.249 139.295 112.196 139.341 112.157 139.397Z" fill="white"/>
<path d="M115.149 141.882H114.558C114.443 141.882 114.353 141.818 114.359 141.747L114.61 139.179C114.61 139.102 114.719 139.044 114.841 139.044H115.432C115.547 139.044 115.637 139.102 115.631 139.179L115.38 141.747C115.374 141.805 115.271 141.882 115.149 141.882Z" fill="#263238"/>
<path d="M129.511 141.882H128.92C128.798 141.882 128.708 141.818 128.715 141.747L128.971 139.179C128.971 139.102 129.08 139.044 129.196 139.044H129.787C129.909 139.044 129.999 139.102 129.992 139.179L129.735 141.747C129.729 141.805 129.626 141.882 129.511 141.882Z" fill="#263238"/>
</svg>
