<svg width="17" height="15" viewBox="0 0 17 15" fill="none" xmlns="http://www.w3.org/2000/svg">
<path d="M16.0233 5.3056H16.147V5.18193V3.59119C16.147 3.04299 15.9358 2.51651 15.5588 2.12776C15.1817 1.73887 14.6693 1.51967 14.1342 1.51967H3.07246C2.53739 1.51967 2.02504 1.73887 1.64788 2.12776C1.27085 2.51651 1.05968 3.04299 1.05968 3.59119V12.0622C1.05968 12.6104 1.27085 13.1368 1.64788 13.5256C2.02504 13.9145 2.53739 14.1337 3.07246 14.1337H14.1321C14.397 14.1337 14.6592 14.0799 14.9036 13.9755C15.1481 13.8711 15.37 13.7181 15.5567 13.5256C15.7434 13.3331 15.8914 13.1047 15.9922 12.8537C16.0931 12.6026 16.1449 12.3337 16.1449 12.0622V10.4725V10.3488H16.0213H15.6014H15.4778V10.4725V12.0622C15.4778 12.4324 15.3351 12.7867 15.0823 13.0473C14.8297 13.3078 14.4878 13.4535 14.1321 13.4535H3.07246C2.71682 13.4535 2.37494 13.3078 2.12228 13.0473C1.86948 12.7867 1.72682 12.4324 1.72682 12.0622V3.59119C1.72682 3.22098 1.86948 2.86668 2.12228 2.60602C2.37494 2.3455 2.71682 2.19986 3.07246 2.19986H14.1321C14.4878 2.19986 14.8297 2.3455 15.0823 2.60602C15.3351 2.86668 15.4778 3.22098 15.4778 3.59119V5.18193V5.3056H15.6014H16.0233Z" fill="white" stroke="white" stroke-width="0.247333"/>
<mask id="path-2-inside-1" fill="white">
<path d="M9.17413 0.864067C9.17413 0.611457 8.91859 0.406677 8.60336 0.406677C8.28813 0.406677 8.03259 0.611457 8.03259 0.864067V2.42262C8.03259 2.67523 8.28813 2.88001 8.60336 2.88001C8.91859 2.88001 9.17413 2.67523 9.17413 2.42262V0.864067Z"/>
</mask>
<path d="M9.17413 0.864067C9.17413 0.611457 8.91859 0.406677 8.60336 0.406677C8.28813 0.406677 8.03259 0.611457 8.03259 0.864067V2.42262C8.03259 2.67523 8.28813 2.88001 8.60336 2.88001C8.91859 2.88001 9.17413 2.67523 9.17413 2.42262V0.864067Z" fill="white"/>
<path d="M8.60336 2.88001C8.23767 2.88001 7.82531 2.76324 7.46028 2.47072C7.09065 2.17451 6.7008 1.62199 6.7008 0.864067H11.6475C11.6475 -1.23762 9.74528 -2.06666 8.60336 -2.06666V2.88001ZM6.7008 0.864067V2.42262H11.6475V0.864067H6.7008ZM6.7008 2.42262C6.7008 1.6647 7.09065 1.11218 7.46028 0.815973C7.82531 0.523453 8.23767 0.406677 8.60336 0.406677V5.35334C9.74528 5.35334 11.6475 4.52431 11.6475 2.42262H6.7008ZM8.60336 0.406677C8.96906 0.406677 9.38141 0.523453 9.74644 0.815973C10.1161 1.11218 10.5059 1.6647 10.5059 2.42262H5.55926C5.55926 4.52431 7.46145 5.35334 8.60336 5.35334V0.406677ZM10.5059 2.42262V0.864067H5.55926V2.42262H10.5059ZM10.5059 0.864067C10.5059 1.62199 10.1161 2.17451 9.74644 2.47071C9.38141 2.76324 8.96906 2.88001 8.60336 2.88001V-2.06666C7.46145 -2.06666 5.55926 -1.23762 5.55926 0.864067H10.5059Z" fill="white" mask="url(#path-2-inside-1)"/>
<mask id="path-4-inside-2" fill="white">
<path d="M4.60791 0.864067C4.60791 0.611457 4.35237 0.406677 4.03714 0.406677C3.72191 0.406677 3.46637 0.611457 3.46637 0.864067V2.42262C3.46637 2.67523 3.72191 2.88001 4.03714 2.88001C4.35237 2.88001 4.60791 2.67523 4.60791 2.42262V0.864067Z"/>
</mask>
<path d="M4.60791 0.864067C4.60791 0.611457 4.35237 0.406677 4.03714 0.406677C3.72191 0.406677 3.46637 0.611457 3.46637 0.864067V2.42262C3.46637 2.67523 3.72191 2.88001 4.03714 2.88001C4.35237 2.88001 4.60791 2.67523 4.60791 2.42262V0.864067Z" fill="white"/>
<path d="M4.03714 2.88001C3.67145 2.88001 3.25909 2.76324 2.89406 2.47072C2.52443 2.17451 2.13457 1.62199 2.13457 0.864067H7.08124C7.08124 -1.23762 5.17905 -2.06666 4.03714 -2.06666V2.88001ZM2.13457 0.864067V2.42262H7.08124V0.864067H2.13457ZM2.13457 2.42262C2.13457 1.6647 2.52443 1.11218 2.89406 0.815973C3.25909 0.523453 3.67144 0.406677 4.03714 0.406677V5.35334C5.17905 5.35334 7.08124 4.52431 7.08124 2.42262H2.13457ZM4.03714 0.406677C4.40283 0.406677 4.81519 0.523453 5.18022 0.815973C5.54985 1.11218 5.9397 1.6647 5.9397 2.42262H0.993036C0.993036 4.52431 2.89522 5.35334 4.03714 5.35334V0.406677ZM5.9397 2.42262V0.864067H0.993036V2.42262H5.9397ZM5.9397 0.864067C5.9397 1.62199 5.54985 2.17451 5.18022 2.47071C4.81519 2.76324 4.40283 2.88001 4.03714 2.88001V-2.06666C2.89522 -2.06666 0.993036 -1.23762 0.993036 0.864067H5.9397Z" fill="white" mask="url(#path-4-inside-2)"/>
<mask id="path-6-inside-3" fill="white">
<path d="M13.7402 0.864067C13.7402 0.611457 13.4846 0.406677 13.1694 0.406677C12.8542 0.406677 12.5986 0.611457 12.5986 0.864067V2.42262C12.5986 2.67523 12.8542 2.88001 13.1694 2.88001C13.4846 2.88001 13.7402 2.67523 13.7402 2.42262V0.864067Z"/>
</mask>
<path d="M13.7402 0.864067C13.7402 0.611457 13.4846 0.406677 13.1694 0.406677C12.8542 0.406677 12.5986 0.611457 12.5986 0.864067V2.42262C12.5986 2.67523 12.8542 2.88001 13.1694 2.88001C13.4846 2.88001 13.7402 2.67523 13.7402 2.42262V0.864067Z" fill="white"/>
<path d="M13.1694 2.88001C12.8037 2.88001 12.3914 2.76324 12.0263 2.47072C11.6567 2.17451 11.2668 1.62199 11.2668 0.864067H16.2135C16.2135 -1.23762 14.3113 -2.06666 13.1694 -2.06666V2.88001ZM11.2668 0.864067V2.42262H16.2135V0.864067H11.2668ZM11.2668 2.42262C11.2668 1.6647 11.6567 1.11218 12.0263 0.815973C12.3914 0.523452 12.8037 0.406677 13.1694 0.406677V5.35334C14.3113 5.35334 16.2135 4.52431 16.2135 2.42262H11.2668ZM13.1694 0.406677C13.5351 0.406677 13.9474 0.523452 14.3125 0.815973C14.6821 1.11218 15.072 1.6647 15.072 2.42262H10.1253C10.1253 4.52431 12.0275 5.35334 13.1694 5.35334V0.406677ZM15.072 2.42262V0.864067H10.1253V2.42262H15.072ZM15.072 0.864067C15.072 1.62199 14.6821 2.17451 14.3125 2.47072C13.9475 2.76324 13.5351 2.88001 13.1694 2.88001V-2.06666C12.0275 -2.06666 10.1253 -1.23762 10.1253 0.864067H15.072Z" fill="white" mask="url(#path-6-inside-3)"/>
<path d="M16.12 7.89815L16.1842 7.81767L16.1167 7.73998L15.9628 7.56287L15.1618 6.55256L15.1616 6.55228C15.1216 6.50211 15.0605 6.46632 14.9891 6.46632C14.9176 6.46632 14.8566 6.50211 14.8166 6.55228L14.8163 6.55257C14.777 6.60218 14.7581 6.66444 14.7581 6.72507C14.7581 6.78569 14.777 6.84796 14.8163 6.89756L14.8165 6.89781L15.5426 7.80901C15.5426 7.80901 15.5426 7.80901 15.5426 7.80901C15.5434 7.81004 15.547 7.81631 15.547 7.82716C15.547 7.83802 15.5434 7.8443 15.5426 7.84532L14.8165 8.75652L14.8165 8.75656C14.7771 8.80604 14.7582 8.86823 14.7582 8.92875C14.7582 8.98928 14.7771 9.05147 14.8165 9.10095L14.8166 9.10104C14.8566 9.15121 14.9176 9.18699 14.9891 9.18699C15.0605 9.18699 15.1216 9.15121 15.1616 9.10104L15.1616 9.10099L15.9684 8.0885L15.9684 8.0885L16.12 7.89815Z" fill="white" stroke="white" stroke-width="0.247333"/>
</svg>
