<svg width="15" height="15" viewBox="0 0 15 15" fill="none" xmlns="http://www.w3.org/2000/svg">
<g clip-path="url(#clip0)">
<path d="M7.50065 0C3.36516 7.97402e-05 0.000927341 3.36456 0.00100708 7.49996C0.00100708 11.6354 3.36532 15 7.50065 15.0001C11.6363 15 15.0009 11.6355 15.0009 7.50004C15.0008 3.36448 11.6363 0 7.50065 0ZM7.50065 13.8039C4.02486 13.8038 1.19711 10.9759 1.19711 7.49988C1.19703 4.02401 4.02478 1.19618 7.50065 1.1961C10.9768 1.1961 13.8048 4.02401 13.8048 7.50004C13.8047 10.9759 10.9768 13.8038 7.50065 13.8039Z" fill="black"/>
<path d="M7.49987 4.05487C5.60038 4.05503 4.05493 5.60055 4.05493 7.49996C4.05493 9.39969 5.60038 10.9452 7.49995 10.9452C9.3996 10.9452 10.9451 9.39969 10.9451 7.50004C10.9451 5.60031 9.3996 4.05487 7.49987 4.05487ZM7.49995 9.74911C6.25991 9.74911 5.25103 8.74016 5.25103 7.49996C5.25103 6.26 6.25991 5.25105 7.49995 5.25097C8.74014 5.25097 9.74902 6.25992 9.74902 7.50004C9.74902 8.74016 8.74007 9.74911 7.49995 9.74911Z" fill="black"/>
<path d="M7.49998 8.79414C8.21469 8.79414 8.79409 8.21475 8.79409 7.50004C8.79409 6.78532 8.21469 6.20593 7.49998 6.20593C6.78526 6.20593 6.20587 6.78532 6.20587 7.50004C6.20587 8.21475 6.78526 8.79414 7.49998 8.79414Z" fill="black"/>
</g>
<defs>
<clipPath id="clip0">
<rect width="15" height="15" fill="white"/>
</clipPath>
</defs>
</svg>
